<svg width="112" height="32" viewBox="0 0 112 32" fill="none" xmlns="http://www.w3.org/2000/svg">
<path d="M111.378 28.3113C111.378 30.0166 109.952 31.3979 108.188 31.3979H3.81558C2.05287 31.3979 0.62207 30.0166 0.62207 28.3113V3.69616C0.62207 1.99164 2.05287 0.605469 3.81558 0.605469H108.187C109.952 0.605469 111.377 1.99164 111.377 3.69616L111.378 28.3113Z" fill="black"/>
<path d="M107.852 0.642466C109.772 0.642466 111.335 2.14947 111.335 4.00147V28.0015C111.335 29.8535 109.772 31.3605 107.852 31.3605H4.14815C2.22756 31.3605 0.664741 29.8535 0.664741 28.0015V4.00147C0.664741 2.14947 2.22756 0.642466 4.14815 0.642466H107.852ZM107.852 0.00146675H4.14815C1.8677 0.00146675 0 1.80247 0 4.00147V28.0015C0 30.2005 1.8677 32.0015 4.14815 32.0015H107.852C110.132 32.0015 112 30.2005 112 28.0015V4.00147C112 1.80247 110.132 0.00146675 107.852 0.00146675Z" fill="#A6A6A6"/>
<path d="M24.9948 15.8287C24.9708 13.2503 27.1842 11.9959 27.2854 11.9375C26.0319 10.1751 24.0889 9.9343 23.4061 9.9151C21.7742 9.7495 20.1913 10.8567 19.36 10.8567C18.5121 10.8567 17.232 9.9311 15.8523 9.9583C14.0769 9.9847 12.416 10.9759 11.5051 12.5151C9.62512 15.6535 11.0272 20.2655 12.8283 22.8023C13.7293 24.0447 14.7821 25.4319 16.1601 25.3831C17.5083 25.3295 18.0119 24.5543 19.6388 24.5543C21.2507 24.5543 21.7236 25.3831 23.129 25.3519C24.5759 25.3295 25.4868 24.1039 26.3563 22.8503C27.3974 21.4263 27.8156 20.0239 27.8322 19.9519C27.7982 19.9407 25.0222 18.9191 24.9948 15.8287Z" fill="white"/>
<path d="M22.34 8.2463C23.0651 7.3719 23.5612 6.1823 23.4235 4.9751C22.374 5.0199 21.0616 5.6751 20.3058 6.5303C19.6371 7.2839 19.0398 8.5191 19.1941 9.6807C20.373 9.7655 21.5834 9.1071 22.34 8.2463Z" fill="white"/>
<path d="M40.6938 8.00843C40.6938 8.95003 40.4009 9.65883 39.816 10.1348C39.2743 10.574 38.5044 10.794 37.5072 10.794C37.0127 10.794 36.5896 10.7732 36.2354 10.7316V5.58683C36.6975 5.51483 37.1952 5.47803 37.7328 5.47803C38.6828 5.47803 39.3987 5.67723 39.8816 6.07563C40.4225 6.52603 40.6938 7.17003 40.6938 8.00843ZM39.777 8.03163C39.777 7.42123 39.6095 6.95323 39.2743 6.62683C38.9391 6.30123 38.4496 6.13803 37.805 6.13803C37.5312 6.13803 37.2981 6.15563 37.1048 6.19243V10.1036C37.2118 10.1196 37.4076 10.1268 37.6922 10.1268C38.3575 10.1268 38.8711 9.94843 39.2328 9.59163C39.5945 9.23483 39.777 8.71483 39.777 8.03163Z" fill="white"/>
<path d="M45.555 8.8311C45.555 9.4111 45.3833 9.8863 45.0398 10.2591C44.6798 10.6423 44.2027 10.8335 43.607 10.8335C43.0329 10.8335 42.5758 10.6503 42.2348 10.2823C41.8947 9.9151 41.7246 9.4519 41.7246 8.8935C41.7246 8.3095 41.8997 7.8303 42.2514 7.4583C42.6032 7.0863 43.0761 6.8999 43.6718 6.8999C44.2459 6.8999 44.7071 7.0831 45.0564 7.4503C45.3883 7.8071 45.555 8.2679 45.555 8.8311ZM44.6532 8.8583C44.6532 8.5103 44.5752 8.2119 44.4201 7.9631C44.2376 7.6623 43.9779 7.5119 43.6402 7.5119C43.291 7.5119 43.0255 7.6623 42.843 7.9631C42.687 8.2119 42.6098 8.5151 42.6098 8.8735C42.6098 9.2215 42.6878 9.5199 42.843 9.7687C43.0313 10.0695 43.2934 10.2199 43.6319 10.2199C43.9638 10.2199 44.2243 10.0671 44.4118 9.7607C44.5727 9.5071 44.6532 9.2063 44.6532 8.8583Z" fill="white"/>
<path d="M52.0726 6.97656L50.8489 10.7478H50.0525L49.5456 9.11016C49.417 8.70136 49.3124 8.29496 49.2311 7.89176H49.2154C49.1399 8.30616 49.0353 8.71176 48.9009 9.11016L48.3625 10.7478H47.5569L46.4062 6.97656H47.2998L47.742 8.76936C47.849 9.19336 47.9369 9.59736 48.0074 9.97976H48.0232C48.0879 9.66456 48.1949 9.26296 48.3459 8.77736L48.9009 6.97736H49.6094L50.1412 8.73896C50.2698 9.16856 50.3744 9.58216 50.4548 9.98056H50.4789C50.5378 9.59256 50.6266 9.17896 50.7444 8.73896L51.2189 6.97736H52.0726V6.97656Z" fill="white"/>
<path d="M56.5794 10.7479H55.7099V8.58786C55.7099 7.92226 55.4478 7.58946 54.9218 7.58946C54.6638 7.58946 54.4555 7.68066 54.2938 7.86386C54.1336 8.04706 54.0523 8.26306 54.0523 8.51026V10.7471H53.1829V8.05426C53.1829 7.72306 53.1721 7.36386 53.1514 6.97506H53.9155L53.9561 7.56466H53.9802C54.0814 7.38146 54.2324 7.23026 54.4307 7.10946C54.6663 6.96866 54.9301 6.89746 55.2188 6.89746C55.5838 6.89746 55.8875 7.01106 56.1289 7.23906C56.4292 7.51826 56.5794 7.93506 56.5794 8.48866V10.7479Z" fill="white"/>
<path d="M58.977 10.7477H58.1084V5.24609H58.977V10.7477Z" fill="white"/>
<path d="M64.096 8.8311C64.096 9.4111 63.9243 9.8863 63.5808 10.2591C63.2208 10.6423 62.7429 10.8335 62.1481 10.8335C61.5731 10.8335 61.116 10.6503 60.7758 10.2823C60.4357 9.9151 60.2656 9.4519 60.2656 8.8935C60.2656 8.3095 60.4407 7.8303 60.7924 7.4583C61.1442 7.0863 61.6171 6.8999 62.2119 6.8999C62.7869 6.8999 63.2473 7.0831 63.5974 7.4503C63.9293 7.8071 64.096 8.2679 64.096 8.8311ZM63.1934 8.8583C63.1934 8.5103 63.1154 8.2119 62.9603 7.9631C62.7786 7.6623 62.5181 7.5119 62.1812 7.5119C61.8311 7.5119 61.5657 7.6623 61.384 7.9631C61.228 8.2119 61.1508 8.5151 61.1508 8.8735C61.1508 9.2215 61.2288 9.5199 61.384 9.7687C61.5723 10.0695 61.8345 10.2199 62.1729 10.2199C62.5048 10.2199 62.7645 10.0671 62.952 9.7607C63.1137 9.5071 63.1934 9.2063 63.1934 8.8583Z" fill="white"/>
<path d="M68.3034 10.7479H67.5228L67.458 10.3135H67.434C67.1668 10.6599 66.786 10.8335 66.2916 10.8335C65.9224 10.8335 65.6237 10.7191 65.3989 10.4919C65.1948 10.2855 65.0928 10.0287 65.0928 9.7239C65.0928 9.2631 65.2919 8.9119 65.6926 8.6687C66.0925 8.4255 66.655 8.3063 67.3792 8.3119V8.2415C67.3792 7.7447 67.1088 7.4967 66.567 7.4967C66.1812 7.4967 65.8411 7.5903 65.5474 7.7759L65.3707 7.2255C65.7341 7.0087 66.1829 6.8999 66.7122 6.8999C67.7343 6.8999 68.247 7.4199 68.247 8.4599V9.8487C68.247 10.2255 68.2661 10.5255 68.3034 10.7479ZM67.4008 9.4519V8.8703C66.4417 8.8543 65.9622 9.1079 65.9622 9.6303C65.9622 9.8271 66.017 9.9743 66.129 10.0727C66.241 10.1711 66.3837 10.2199 66.5537 10.2199C66.7446 10.2199 66.9229 10.1615 67.0855 10.0455C67.249 9.9287 67.3494 9.7807 67.3867 9.5991C67.3958 9.5583 67.4008 9.5087 67.4008 9.4519Z" fill="white"/>
<path d="M73.2441 10.7477H72.4725L72.4319 10.1421H72.4078C72.1614 10.6029 71.7416 10.8333 71.1517 10.8333C70.6805 10.8333 70.2881 10.6549 69.977 10.2981C69.6659 9.94129 69.5107 9.47809 69.5107 8.90929C69.5107 8.29889 69.6792 7.80449 70.0176 7.42689C70.3453 7.07489 70.7469 6.89889 71.2248 6.89889C71.7499 6.89889 72.1174 7.06929 72.3265 7.41089H72.3431V5.24609H73.2134V9.73169C73.2134 10.0989 73.2233 10.4373 73.2441 10.7477ZM72.3431 9.15729V8.52849C72.3431 8.41969 72.3348 8.33169 72.319 8.26449C72.2701 8.06289 72.1647 7.89329 72.0046 7.75649C71.8428 7.61969 71.6479 7.55089 71.423 7.55089C71.0986 7.55089 70.8448 7.67489 70.6581 7.92369C70.4731 8.17249 70.3794 8.49009 70.3794 8.87809C70.3794 9.25089 70.4681 9.55329 70.6465 9.78609C70.8348 10.0341 71.0887 10.1581 71.4064 10.1581C71.6918 10.1581 71.92 10.0549 72.0934 9.84769C72.261 9.65649 72.3431 9.42609 72.3431 9.15729Z" fill="white"/>
<path d="M80.68 8.8311C80.68 9.4111 80.5083 9.8863 80.1648 10.2591C79.8047 10.6423 79.3285 10.8335 78.732 10.8335C78.1588 10.8335 77.7016 10.6503 77.3598 10.2823C77.0197 9.9151 76.8496 9.4519 76.8496 8.8935C76.8496 8.3095 77.0247 7.8303 77.3764 7.4583C77.7282 7.0863 78.2011 6.8999 78.7976 6.8999C79.3709 6.8999 79.833 7.0831 80.1814 7.4503C80.5133 7.8071 80.68 8.2679 80.68 8.8311ZM79.779 8.8583C79.779 8.5103 79.701 8.2119 79.5459 7.9631C79.3626 7.6623 79.1037 7.5119 78.7652 7.5119C78.4168 7.5119 78.1513 7.6623 77.9679 7.9631C77.812 8.2119 77.7348 8.5151 77.7348 8.8735C77.7348 9.2215 77.8128 9.5199 77.9679 9.7687C78.1563 10.0695 78.4184 10.2199 78.7569 10.2199C79.0888 10.2199 79.3501 10.0671 79.5376 9.7607C79.6977 9.5071 79.779 9.2063 79.779 8.8583Z" fill="white"/>
<path d="M85.3549 10.7479H84.4863V8.58786C84.4863 7.92226 84.2241 7.58946 83.6973 7.58946C83.4393 7.58946 83.2311 7.68066 83.0701 7.86386C82.9092 8.04706 82.8287 8.26306 82.8287 8.51026V10.7471H81.9584V8.05426C81.9584 7.72306 81.9485 7.36386 81.9277 6.97506H82.691L82.7316 7.56466H82.7557C82.8577 7.38146 83.0087 7.23026 83.2062 7.10946C83.4426 6.96866 83.7056 6.89746 83.9952 6.89746C84.3594 6.89746 84.663 7.01106 84.9044 7.23906C85.2056 7.51826 85.3549 7.93506 85.3549 8.48866V10.7479Z" fill="white"/>
<path d="M91.2071 7.60431H90.2497V9.43631C90.2497 9.90191 90.4197 10.1347 90.7566 10.1347C90.9125 10.1347 91.042 10.1219 91.144 10.0955L91.1664 10.7315C90.9947 10.7939 90.769 10.8251 90.4911 10.8251C90.1476 10.8251 89.8805 10.7243 89.6872 10.5227C89.493 10.3211 89.3968 9.98191 89.3968 9.50591V7.60431H88.8252V6.97631H89.3968V6.28511L90.2488 6.03711V6.97551H91.2062V7.60431H91.2071Z" fill="white"/>
<path d="M95.8096 10.7477H94.9393V8.60369C94.9393 7.92769 94.6772 7.58929 94.152 7.58929C93.7488 7.58929 93.4734 7.78529 93.3224 8.17729C93.2966 8.25969 93.2817 8.36049 93.2817 8.47889V10.7469H92.4131V5.24609H93.2817V7.51889H93.2983C93.5721 7.10529 93.9645 6.89889 94.4731 6.89889C94.8331 6.89889 95.131 7.01249 95.3674 7.24049C95.6619 7.52449 95.8096 7.94689 95.8096 8.50529V10.7477Z" fill="white"/>
<path d="M100.557 8.68378C100.557 8.83418 100.545 8.96058 100.525 9.06378H97.9172C97.9288 9.43658 98.0532 9.72058 98.2947 9.91738C98.5153 10.0934 98.7999 10.1814 99.1483 10.1814C99.5341 10.1814 99.8859 10.1222 100.203 10.003L100.339 10.5854C99.968 10.7406 99.5316 10.8182 99.0264 10.8182C98.4208 10.8182 97.9437 10.6462 97.5986 10.3022C97.2518 9.95818 97.0801 9.49658 97.0801 8.91738C97.0801 8.34858 97.2402 7.87498 97.5629 7.49738C97.8998 7.09418 98.3552 6.89258 98.9302 6.89258C99.4926 6.89258 99.9199 7.09418 100.209 7.49738C100.442 7.81738 100.557 8.21338 100.557 8.68378ZM99.7274 8.46698C99.7341 8.21818 99.6768 8.00378 99.559 7.82298C99.408 7.59018 99.1782 7.47338 98.8671 7.47338C98.5834 7.47338 98.3519 7.58698 98.1752 7.81498C98.0308 7.99658 97.9454 8.21338 97.9172 8.46698H99.7274Z" fill="white"/>
<path d="M44.5055 25.2045H42.6214L41.5893 22.0773H38.002L37.0189 25.2045H35.1846L38.7387 14.5581H40.9339L44.5055 25.2045ZM41.2782 20.7653L40.3449 17.9853C40.2461 17.7013 40.0611 17.0325 39.7882 15.9797H39.755C39.6463 16.4325 39.4713 17.1013 39.2307 17.9853L38.3139 20.7653H41.2782Z" fill="white"/>
<path d="M53.6451 21.2717C53.6451 22.5773 53.2793 23.6093 52.5475 24.3669C51.8921 25.0413 51.0782 25.3781 50.1068 25.3781C49.0581 25.3781 48.3048 25.0149 47.846 24.2885H47.8128V28.3325H46.0441V20.0549C46.0441 19.2341 46.0217 18.3917 45.9785 17.5277H47.5341L47.6328 18.7445H47.666C48.2558 17.8277 49.151 17.3701 50.3523 17.3701C51.2915 17.3701 52.0755 17.7277 52.7027 18.4437C53.3315 19.1605 53.6451 20.1029 53.6451 21.2717ZM51.8432 21.3341C51.8432 20.5869 51.6689 19.9709 51.3188 19.4861C50.9364 18.9805 50.4228 18.7277 49.779 18.7277C49.3427 18.7277 48.9461 18.8685 48.5918 19.1461C48.2368 19.4261 48.0045 19.7917 47.8958 20.2445C47.841 20.4557 47.8137 20.6285 47.8137 20.7645V22.0445C47.8137 22.6029 47.9912 23.0741 48.3463 23.4589C48.7014 23.8437 49.1626 24.0357 49.7301 24.0357C50.3963 24.0357 50.9148 23.7877 51.2857 23.2933C51.6573 22.7981 51.8432 22.1453 51.8432 21.3341Z" fill="white"/>
<path d="M62.8025 21.2717C62.8025 22.5773 62.4366 23.6093 61.7041 24.3669C61.0495 25.0413 60.2356 25.3781 59.2641 25.3781C58.2155 25.3781 57.4622 25.0149 57.0042 24.2885H56.971V28.3325H55.2023V20.0549C55.2023 19.2341 55.1799 18.3917 55.1367 17.5277H56.6923L56.791 18.7445H56.8242C57.4132 17.8277 58.3084 17.3701 59.5105 17.3701C60.4488 17.3701 61.2328 17.7277 61.8617 18.4437C62.4881 19.1605 62.8025 20.1029 62.8025 21.2717ZM61.0005 21.3341C61.0005 20.5869 60.8255 19.9709 60.4754 19.4861C60.0929 18.9805 59.581 18.7277 58.9364 18.7277C58.4992 18.7277 58.1035 18.8685 57.7484 19.1461C57.3933 19.4261 57.1618 19.7917 57.0532 20.2445C56.9992 20.4557 56.971 20.6285 56.971 20.7645V22.0445C56.971 22.6029 57.1486 23.0741 57.502 23.4589C57.8571 23.8429 58.3184 24.0357 58.8875 24.0357C59.5537 24.0357 60.0722 23.7877 60.443 23.2933C60.8147 22.7981 61.0005 22.1453 61.0005 21.3341Z" fill="white"/>
<path d="M73.0399 22.2191C73.0399 23.1247 72.7138 23.8615 72.0592 24.4303C71.3399 25.0519 70.3386 25.3623 69.0518 25.3623C67.8638 25.3623 66.9114 25.1415 66.1904 24.6991L66.6003 23.2775C67.3768 23.7303 68.2288 23.9575 69.1572 23.9575C69.8234 23.9575 70.3419 23.8119 70.7144 23.5223C71.0852 23.2327 71.2703 22.8439 71.2703 22.3591C71.2703 21.9271 71.1176 21.5631 70.8115 21.2679C70.507 20.9727 69.9984 20.6983 69.2883 20.4447C67.3552 19.7495 66.3895 18.7311 66.3895 17.3919C66.3895 16.5167 66.728 15.7991 67.4058 15.2407C68.0812 14.6815 68.9821 14.4023 70.1088 14.4023C71.1135 14.4023 71.9481 14.5711 72.6143 14.9079L72.1721 16.2983C71.5498 15.9719 70.8463 15.8087 70.059 15.8087C69.4368 15.8087 68.9506 15.9567 68.6022 16.2511C68.3076 16.5143 68.16 16.8351 68.16 17.2151C68.16 17.6359 68.3284 17.9839 68.6669 18.2575C68.9614 18.5103 69.4965 18.7839 70.273 19.0791C71.223 19.4479 71.9207 19.8791 72.3695 20.3735C72.8167 20.8663 73.0399 21.4831 73.0399 22.2191Z" fill="white"/>
<path d="M78.8874 18.808H76.9378V22.5352C76.9378 23.4832 77.2813 23.9568 77.9698 23.9568C78.2859 23.9568 78.5481 23.9304 78.7555 23.8776L78.8045 25.1728C78.456 25.2984 77.9972 25.3616 77.4289 25.3616C76.7304 25.3616 76.1845 25.156 75.7904 24.7456C75.398 24.3344 75.2005 23.6448 75.2005 22.676V18.8064H74.0391V17.5264H75.2005V16.1208L76.9378 15.6152V17.5264H78.8874V18.808Z" fill="white"/>
<path d="M87.6844 21.3031C87.6844 22.4831 87.3343 23.4519 86.6358 24.2095C85.9032 24.9895 84.9309 25.3783 83.7188 25.3783C82.5507 25.3783 81.6206 25.0047 80.9271 24.2575C80.2335 23.5103 79.8867 22.5671 79.8867 21.4303C79.8867 20.2407 80.2435 19.2663 80.9594 18.5087C81.6737 17.7503 82.6378 17.3711 83.8499 17.3711C85.018 17.3711 85.9579 17.7447 86.6673 18.4927C87.3459 19.2183 87.6844 20.1551 87.6844 21.3031ZM85.8493 21.3583C85.8493 20.6503 85.6925 20.0431 85.3747 19.5367C85.0039 18.9239 84.4737 18.6183 83.7868 18.6183C83.0758 18.6183 82.5357 18.9247 82.1649 19.5367C81.8471 20.0439 81.6903 20.6607 81.6903 21.3903C81.6903 22.0983 81.8471 22.7055 82.1649 23.2111C82.5473 23.8239 83.0816 24.1295 83.771 24.1295C84.4464 24.1295 84.9765 23.8175 85.359 23.1951C85.685 22.6791 85.8493 22.0655 85.8493 21.3583Z" fill="white"/>
<path d="M93.4341 19.0277C93.2591 18.9965 93.0724 18.9805 92.8766 18.9805C92.2544 18.9805 91.7732 19.2069 91.4347 19.6605C91.1402 20.0605 90.9925 20.5661 90.9925 21.1765V25.2045H89.2246L89.2412 19.9453C89.2412 19.0605 89.2188 18.2549 89.1748 17.5285H90.7154L90.7801 18.9973H90.8291C91.0158 18.4925 91.3103 18.0861 91.7135 17.7813C92.1076 17.5069 92.5332 17.3701 92.9919 17.3701C93.1554 17.3701 93.3031 17.3813 93.4341 17.4013V19.0277Z" fill="white"/>
<path d="M101.345 21.0032C101.345 21.3088 101.324 21.5664 101.28 21.7768H95.9736C95.9943 22.5352 96.2507 23.1152 96.7435 23.5152C97.1907 23.8728 97.7689 24.052 98.4791 24.052C99.2647 24.052 99.9815 23.9312 100.626 23.6888L100.903 24.8728C100.15 25.1896 99.2606 25.3472 98.2343 25.3472C96.9998 25.3472 96.0308 24.9968 95.3256 24.2968C94.6221 23.5968 94.2695 22.6568 94.2695 21.4776C94.2695 20.32 94.5972 19.356 95.2535 18.5872C95.9404 17.7664 96.8688 17.356 98.0369 17.356C99.1842 17.356 100.053 17.7664 100.643 18.5872C101.11 19.2392 101.345 20.0456 101.345 21.0032ZM99.658 20.5608C99.6696 20.0552 99.5543 19.6184 99.3145 19.2496C99.0084 18.7752 98.538 18.5384 97.905 18.5384C97.3267 18.5384 96.8563 18.7696 96.4971 19.2336C96.2026 19.6024 96.0275 20.0448 95.9736 20.56H99.658V20.5608Z" fill="white"/>
</svg>
