<svg width="111" height="32" viewBox="0 0 111 32" fill="none" xmlns="http://www.w3.org/2000/svg">
<path d="M106.889 32.0015H4.11111C1.85103 32.0015 0 30.2005 0 28.0015V4.00147C0 1.80247 1.85103 0.00146675 4.11111 0.00146675H106.889C109.149 0.00146675 111 1.80247 111 4.00147V28.0015C111 30.2005 109.149 32.0015 106.889 32.0015Z" fill="black"/>
<path d="M106.889 0.642466C108.792 0.642466 110.341 2.14947 110.341 4.00147V28.0015C110.341 29.8535 108.792 31.3605 106.889 31.3605H4.11111C2.20767 31.3605 0.658805 29.8535 0.658805 28.0015V4.00147C0.658805 2.14947 2.20767 0.642466 4.11111 0.642466H106.889ZM106.889 0.00146675H4.11111C1.85103 0.00146675 0 1.80247 0 4.00147V28.0015C0 30.2005 1.85103 32.0015 4.11111 32.0015H106.889C109.149 32.0015 111 30.2005 111 28.0015V4.00147C111 1.80247 109.149 0.00146675 106.889 0.00146675Z" fill="#A6A6A6"/>
<path d="M8.57955 6.03232C8.33802 6.27832 8.19824 6.66132 8.19824 7.15732V24.8493C8.19824 25.3453 8.33802 25.7283 8.57955 25.9743L8.63916 26.0283L18.8285 16.1183V15.8843L8.63916 5.97432L8.57955 6.03232Z" fill="url(#paint0_linear_371_1316)"/>
<path d="M22.2218 19.4233L18.8291 16.1183V15.8843L22.2259 12.5793L22.302 12.6223L26.3247 14.8493C27.4727 15.4813 27.4727 16.5213 26.3247 17.1573L22.302 19.3803L22.2218 19.4233V19.4233Z" fill="url(#paint1_linear_371_1316)"/>
<path d="M22.3019 19.3804L18.8291 16.0014L8.58008 25.9744C8.96138 26.3644 9.58319 26.4114 10.2903 26.0214L22.3019 19.3804" fill="url(#paint2_linear_371_1316)"/>
<path d="M22.3019 12.6225L10.2903 5.98147C9.58319 5.59547 8.96138 5.64247 8.58008 6.03247L18.8291 16.0015L22.3019 12.6225Z" fill="url(#paint3_linear_371_1316)"/>
<path d="M38.9878 8.19616C38.9878 8.86416 38.7822 9.39916 38.3773 9.79816C37.9117 10.2712 37.3053 10.5092 36.5622 10.5092C35.852 10.5092 35.2456 10.2672 34.7482 9.79016C34.2497 9.30616 34.001 8.71216 34.001 8.00116C34.001 7.29016 34.2497 6.69616 34.7482 6.21616C35.2456 5.73516 35.852 5.49316 36.5622 5.49316C36.9158 5.49316 37.2529 5.56416 37.5746 5.69616C37.8952 5.82916 38.1563 6.00916 38.3454 6.23116L37.9158 6.65316C37.5859 6.27416 37.1367 6.08716 36.5622 6.08716C36.0442 6.08716 35.5951 6.26316 35.2138 6.61816C34.8366 6.97416 34.6474 7.43516 34.6474 8.00116C34.6474 8.56716 34.8366 9.03216 35.2138 9.38816C35.5951 9.73916 36.0442 9.91916 36.5622 9.91916C37.1121 9.91916 37.5746 9.73916 37.9394 9.38416C38.1799 9.14916 38.3166 8.82516 38.3526 8.41116H36.5622V7.83316H38.9508C38.9795 7.95816 38.9878 8.07916 38.9878 8.19616V8.19616Z" fill="white" stroke="white" stroke-width="0.16" stroke-miterlimit="10"/>
<path d="M42.7772 6.19251H40.5336V7.71251H42.5563V8.29051H40.5336V9.81051H42.7772V10.3995H39.8984V5.60352H42.7772V6.19251Z" fill="white" stroke="white" stroke-width="0.16" stroke-miterlimit="10"/>
<path d="M45.4518 10.3995H44.8166V6.19251H43.4404V5.60352H46.829V6.19251H45.4518V10.3995V10.3995Z" fill="white" stroke="white" stroke-width="0.16" stroke-miterlimit="10"/>
<path d="M49.2812 10.3995V5.60352H49.9154V10.3995H49.2812Z" fill="white" stroke="white" stroke-width="0.16" stroke-miterlimit="10"/>
<path d="M52.7262 10.3995H52.0962V6.19251H50.7148V5.60352H54.1075V6.19251H52.7262V10.3995Z" fill="white" stroke="white" stroke-width="0.16" stroke-miterlimit="10"/>
<path d="M60.5231 9.78216C60.037 10.2672 59.4347 10.5092 58.7163 10.5092C57.9938 10.5092 57.3915 10.2672 56.9054 9.78216C56.4202 9.29816 56.1787 8.70416 56.1787 8.00116C56.1787 7.29816 56.4202 6.70416 56.9054 6.22016C57.3915 5.73516 57.9938 5.49316 58.7163 5.49316C59.4306 5.49316 60.0329 5.73516 60.519 6.22416C61.0082 6.71216 61.2498 7.30216 61.2498 8.00116C61.2498 8.70416 61.0082 9.29816 60.5231 9.78216ZM57.375 9.38016C57.7409 9.73916 58.186 9.91916 58.7163 9.91916C59.2425 9.91916 59.6917 9.73916 60.0534 9.38016C60.4183 9.02116 60.6033 8.56016 60.6033 8.00116C60.6033 7.44216 60.4183 6.98116 60.0534 6.62216C59.6917 6.26316 59.2425 6.08316 58.7163 6.08316C58.186 6.08316 57.7409 6.26316 57.375 6.62216C57.0102 6.98116 56.8252 7.44216 56.8252 8.00116C56.8252 8.56016 57.0102 9.02116 57.375 9.38016V9.38016Z" fill="white" stroke="white" stroke-width="0.16" stroke-miterlimit="10"/>
<path d="M62.1406 10.3995V5.60352H62.9115L65.3082 9.33351H65.336L65.3082 8.41151V5.60352H65.9424V10.3995H65.2805L62.7707 6.48551H62.7429L62.7707 7.41151V10.3995H62.1406V10.3995Z" fill="white" stroke="white" stroke-width="0.16" stroke-miterlimit="10"/>
<path d="M56.0222 17.4037C54.091 17.4037 52.5134 18.8337 52.5134 20.8067C52.5134 22.7637 54.091 24.2087 56.0222 24.2087C57.9575 24.2087 59.5352 22.7637 59.5352 20.8067C59.5352 18.8337 57.9575 17.4037 56.0222 17.4037ZM56.0222 22.8687C54.9626 22.8687 54.051 22.0177 54.051 20.8067C54.051 19.5797 54.9626 18.7437 56.0222 18.7437C57.0819 18.7437 57.9976 19.5797 57.9976 20.8067C57.9976 22.0177 57.0819 22.8687 56.0222 22.8687V22.8687ZM48.3663 17.4037C46.431 17.4037 44.8575 18.8337 44.8575 20.8067C44.8575 22.7637 46.431 24.2087 48.3663 24.2087C50.3006 24.2087 51.8752 22.7637 51.8752 20.8067C51.8752 18.8337 50.3006 17.4037 48.3663 17.4037ZM48.3663 22.8687C47.3057 22.8687 46.3909 22.0177 46.3909 20.8067C46.3909 19.5797 47.3057 18.7437 48.3663 18.7437C49.426 18.7437 50.3376 19.5797 50.3376 20.8067C50.3376 22.0177 49.426 22.8687 48.3663 22.8687ZM39.2561 18.4467V19.8927H42.805C42.7012 20.7007 42.4237 21.2947 41.9982 21.7087C41.4802 22.2087 40.6734 22.7637 39.2561 22.7637C37.0721 22.7637 35.3619 21.0487 35.3619 18.9237C35.3619 16.7987 37.0721 15.0837 39.2561 15.0837C40.437 15.0837 41.2962 15.5327 41.9304 16.1147L42.9777 15.0957C42.0907 14.2717 40.9108 13.6387 39.2561 13.6387C36.2612 13.6387 33.7441 16.0097 33.7441 18.9237C33.7441 21.8377 36.2612 24.2087 39.2561 24.2087C40.8749 24.2087 42.0907 23.6927 43.0466 22.7247C44.026 21.7717 44.3313 20.4317 44.3313 19.3497C44.3313 19.0137 44.3025 18.7047 44.2511 18.4467H39.2561ZM76.5089 19.5677C76.2201 18.8067 75.329 17.4037 73.514 17.4037C71.7154 17.4037 70.2179 18.7827 70.2179 20.8067C70.2179 22.7127 71.7 24.2087 73.6867 24.2087C75.2931 24.2087 76.2201 23.2557 76.6014 22.7007L75.4092 21.9277C75.0115 22.4937 74.4698 22.8687 73.6867 22.8687C72.9086 22.8687 72.3505 22.5217 71.9929 21.8377L76.6703 19.9547L76.5089 19.5677V19.5677ZM71.74 20.7007C71.7 19.3887 72.7874 18.7167 73.5664 18.7167C74.1769 18.7167 74.6949 19.0137 74.8676 19.4387L71.74 20.7007V20.7007ZM67.9383 24.0017H69.4758V14.0017H67.9383V24.0017ZM65.4202 18.1617H65.3688C65.0235 17.7637 64.3647 17.4037 63.5302 17.4037C61.7788 17.4037 60.1775 18.8997 60.1775 20.8177C60.1775 22.7247 61.7788 24.2087 63.5302 24.2087C64.3647 24.2087 65.0235 23.8457 65.3688 23.4357H65.4202V23.9237C65.4202 25.2247 64.7059 25.9237 63.5538 25.9237C62.6144 25.9237 62.0317 25.2637 61.7912 24.7087L60.454 25.2517C60.8394 26.1537 61.86 27.2637 63.5538 27.2637C65.3565 27.2637 66.8776 26.2317 66.8776 23.7207V17.6107H65.4202V18.1617V18.1617ZM63.6617 22.8687C62.6021 22.8687 61.7151 22.0057 61.7151 20.8177C61.7151 19.6187 62.6021 18.7437 63.6617 18.7437C64.7059 18.7437 65.5292 19.6187 65.5292 20.8177C65.5292 22.0057 64.7059 22.8687 63.6617 22.8687V22.8687ZM83.7075 14.0017H80.0301V24.0017H81.5635V20.2127H83.7075C85.4105 20.2127 87.0806 19.0137 87.0806 17.1067C87.0806 15.2007 85.4064 14.0017 83.7075 14.0017V14.0017ZM83.7476 18.8217H81.5635V15.3927H83.7476C84.8925 15.3927 85.5462 16.3177 85.5462 17.1067C85.5462 17.8807 84.8925 18.8217 83.7476 18.8217ZM93.2268 17.3847C92.1188 17.3847 90.9667 17.8607 90.4929 18.9157L91.8536 19.4707C92.1466 18.9157 92.6851 18.7357 93.2545 18.7357C94.05 18.7357 94.8568 19.2007 94.8691 20.0217V20.1267C94.5916 19.9707 93.9976 19.7397 93.2668 19.7397C91.8012 19.7397 90.3079 20.5247 90.3079 21.9897C90.3079 23.3297 91.5083 24.1927 92.8578 24.1927C93.8897 24.1927 94.4591 23.7397 94.8167 23.2127H94.8691V23.9857H96.3502V20.1497C96.3502 18.3767 94.9894 17.3847 93.2268 17.3847ZM93.0418 22.8647C92.5402 22.8647 91.8413 22.6227 91.8413 22.0177C91.8413 21.2437 92.7129 20.9467 93.4673 20.9467C94.1425 20.9467 94.4591 21.0917 94.8691 21.2827C94.7489 22.2087 93.9298 22.8647 93.0418 22.8647V22.8647ZM101.746 17.6037L99.9834 21.9387H99.931L98.1087 17.6037H96.455L99.193 23.6617L97.6308 27.0327H99.2331L103.452 17.6037H101.746V17.6037ZM87.9234 24.0017H89.461V14.0017H87.9234V24.0017Z" fill="white"/>
<defs>
<linearGradient id="paint0_linear_371_1316" x1="17.9239" y1="25.0336" x2="4.50297" y2="11.2399" gradientUnits="userSpaceOnUse">
<stop stop-color="#00A0FF"/>
<stop offset="0.0066" stop-color="#00A1FF"/>
<stop offset="0.2601" stop-color="#00BEFF"/>
<stop offset="0.5122" stop-color="#00D2FF"/>
<stop offset="0.7604" stop-color="#00DFFF"/>
<stop offset="1" stop-color="#00E3FF"/>
</linearGradient>
<linearGradient id="paint1_linear_371_1316" x1="27.8196" y1="16.0002" x2="7.92438" y2="16.0002" gradientUnits="userSpaceOnUse">
<stop stop-color="#FFE000"/>
<stop offset="0.4087" stop-color="#FFBD00"/>
<stop offset="0.7754" stop-color="#FFA500"/>
<stop offset="1" stop-color="#FF9C00"/>
</linearGradient>
<linearGradient id="paint2_linear_371_1316" x1="20.4135" y1="14.1646" x2="2.21369" y2="-4.54079" gradientUnits="userSpaceOnUse">
<stop stop-color="#FF3A44"/>
<stop offset="1" stop-color="#C31162"/>
</linearGradient>
<linearGradient id="paint3_linear_371_1316" x1="6.00019" y1="31.8605" x2="14.1272" y2="23.5078" gradientUnits="userSpaceOnUse">
<stop stop-color="#32A071"/>
<stop offset="0.0685" stop-color="#2DA771"/>
<stop offset="0.4762" stop-color="#15CF74"/>
<stop offset="0.8009" stop-color="#06E775"/>
<stop offset="1" stop-color="#00F076"/>
</linearGradient>
</defs>
</svg>
