<svg width="18" height="18" viewBox="0 0 18 18" fill="none" xmlns="http://www.w3.org/2000/svg">
<g id="alert-triangle">
<path id="Vector" d="M7.71758 2.895L1.36508 13.5C1.2341 13.7268 1.1648 13.984 1.16407 14.2459C1.16334 14.5078 1.23119 14.7653 1.3609 14.9929C1.4906 15.2204 1.67762 15.4101 1.90336 15.5429C2.12909 15.6757 2.38568 15.7471 2.64758 15.75H15.3526C15.6145 15.7471 15.8711 15.6757 16.0968 15.5429C16.3225 15.4101 16.5096 15.2204 16.6393 14.9929C16.769 14.7653 16.8368 14.5078 16.8361 14.2459C16.8354 13.984 16.7661 13.7268 16.6351 13.5L10.2826 2.895C10.1489 2.67458 9.96062 2.49234 9.73597 2.36586C9.51133 2.23939 9.25788 2.17294 9.00008 2.17294C8.74228 2.17294 8.48882 2.23939 8.26418 2.36586C8.03954 2.49234 7.85128 2.67458 7.71758 2.895Z" stroke="#F4C43B" stroke-width="1.5" stroke-linecap="round" stroke-linejoin="round"/>
<path id="Vector_2" d="M9 6.75V9.75" stroke="#F4C43B" stroke-width="1.5" stroke-linecap="round" stroke-linejoin="round"/>
<path id="Vector_3" d="M9 12.75H9.0075" stroke="#F4C43B" stroke-width="2" stroke-linecap="round" stroke-linejoin="round"/>
</g>
</svg>
