<svg width="18" height="10" viewBox="0 0 18 10" fill="none" xmlns="http://www.w3.org/2000/svg">
<path id="Vector" d="M0.969383 8.21945L8.46939 0.719446C8.53904 0.649714 8.62176 0.594394 8.7128 0.556651C8.80385 0.518908 8.90145 0.499482 9.00001 0.499482C9.09857 0.499482 9.19617 0.518908 9.28722 0.556651C9.37826 0.594394 9.46098 0.649714 9.53064 0.719446L17.0306 8.21945C17.1714 8.36018 17.2504 8.55105 17.2504 8.75007C17.2504 8.94909 17.1714 9.13997 17.0306 9.2807C16.8899 9.42143 16.699 9.50049 16.5 9.50049C16.301 9.50049 16.1101 9.42143 15.9694 9.2807L9.00001 2.31038L2.03063 9.2807C1.96095 9.35038 1.87823 9.40565 1.78718 9.44337C1.69614 9.48108 1.59856 9.50049 1.50001 9.50049C1.40146 9.50049 1.30388 9.48108 1.21284 9.44337C1.12179 9.40565 1.03907 9.35038 0.969383 9.2807C0.899702 9.21101 0.844427 9.12829 0.806715 9.03724C0.769003 8.9462 0.749592 8.84862 0.749592 8.75007C0.749592 8.65153 0.769003 8.55394 0.806715 8.4629C0.844427 8.37185 0.899702 8.28913 0.969383 8.21945Z" fill="#F5FAFF"/>
</svg>
