<svg width="24" height="24" viewBox="0 0 24 24" fill="none" xmlns="http://www.w3.org/2000/svg">
<path d="M13.2806 12.5306L5.78063 20.0306C5.63989 20.1713 5.44902 20.2504 5.25 20.2504C5.05098 20.2504 4.86011 20.1713 4.71938 20.0306C4.57864 19.8899 4.49958 19.699 4.49958 19.5C4.49958 19.301 4.57864 19.1101 4.71938 18.9694L11.6897 12L4.71938 5.03061C4.57864 4.88988 4.49958 4.69901 4.49958 4.49999C4.49958 4.30097 4.57864 4.1101 4.71938 3.96936C4.86011 3.82863 5.05098 3.74957 5.25 3.74957C5.44902 3.74957 5.63989 3.82863 5.78063 3.96936L13.2806 11.4694C13.3504 11.539 13.4057 11.6217 13.4434 11.7128C13.4812 11.8038 13.5006 11.9014 13.5006 12C13.5006 12.0986 13.4812 12.1961 13.4434 12.2872C13.4057 12.3782 13.3504 12.461 13.2806 12.5306ZM20.7806 11.4694L13.2806 3.96936C13.1399 3.82863 12.949 3.74957 12.75 3.74957C12.551 3.74957 12.3601 3.82863 12.2194 3.96936C12.0786 4.1101 11.9996 4.30097 11.9996 4.49999C11.9996 4.69901 12.0786 4.88988 12.2194 5.03061L19.1897 12L12.2194 18.9694C12.0786 19.1101 11.9996 19.301 11.9996 19.5C11.9996 19.699 12.0786 19.8899 12.2194 20.0306C12.3601 20.1713 12.551 20.2504 12.75 20.2504C12.949 20.2504 13.1399 20.1713 13.2806 20.0306L20.7806 12.5306C20.8504 12.461 20.9057 12.3782 20.9434 12.2872C20.9812 12.1961 21.0006 12.0986 21.0006 12C21.0006 11.9014 20.9812 11.8038 20.9434 11.7128C20.9057 11.6217 20.8504 11.539 20.7806 11.4694Z" fill="white"/>
</svg>
