<svg width="18" height="10" viewBox="0 0 18 10" fill="none" xmlns="http://www.w3.org/2000/svg">
<path id="Vector" d="M17.0306 1.78055L9.53061 9.28055C9.46096 9.35029 9.37824 9.40561 9.2872 9.44335C9.19615 9.48109 9.09855 9.50052 8.99999 9.50052C8.90143 9.50052 8.80383 9.48109 8.71278 9.44335C8.62174 9.40561 8.53902 9.35029 8.46936 9.28055L0.969365 1.78055C0.828634 1.63982 0.749573 1.44895 0.749573 1.24993C0.749573 1.05091 0.828634 0.860034 0.969365 0.719303C1.1101 0.578573 1.30097 0.499512 1.49999 0.499512C1.69901 0.499512 1.88988 0.578573 2.03061 0.719303L8.99999 7.68962L15.9694 0.719303C16.039 0.649621 16.1218 0.594345 16.2128 0.556633C16.3039 0.518921 16.4014 0.499512 16.5 0.499512C16.5985 0.499512 16.6961 0.518921 16.7872 0.556633C16.8782 0.594345 16.9609 0.649621 17.0306 0.719303C17.1003 0.788986 17.1556 0.871712 17.1933 0.962756C17.231 1.0538 17.2504 1.15138 17.2504 1.24993C17.2504 1.34847 17.231 1.44606 17.1933 1.5371C17.1556 1.62815 17.1003 1.71087 17.0306 1.78055Z" fill="#F5FAFF"/>
</svg>
