<svg width="24" height="24" viewBox="0 0 24 24" fill="none" xmlns="http://www.w3.org/2000/svg">
<path d="M19.2806 18.9694C19.3503 19.039 19.4056 19.1218 19.4433 19.2128C19.481 19.3039 19.5004 19.4014 19.5004 19.5C19.5004 19.5985 19.481 19.6961 19.4433 19.7872C19.4056 19.8782 19.3503 19.9609 19.2806 20.0306C19.2109 20.1003 19.1282 20.1556 19.0372 20.1933C18.9461 20.231 18.8485 20.2504 18.75 20.2504C18.6515 20.2504 18.5539 20.231 18.4628 20.1933C18.3718 20.1556 18.2891 20.1003 18.2194 20.0306L10.7194 12.5306C10.6496 12.461 10.5943 12.3782 10.5566 12.2872C10.5188 12.1961 10.4994 12.0986 10.4994 12C10.4994 11.9014 10.5188 11.8038 10.5566 11.7128C10.5943 11.6217 10.6496 11.539 10.7194 11.4694L18.2194 3.96936C18.3601 3.82863 18.551 3.74957 18.75 3.74957C18.949 3.74957 19.1399 3.82863 19.2806 3.96936C19.4214 4.1101 19.5004 4.30097 19.5004 4.49999C19.5004 4.69901 19.4214 4.88988 19.2806 5.03061L12.3103 12L19.2806 18.9694ZM4.81031 12L11.7806 5.03061C11.9214 4.88988 12.0004 4.69901 12.0004 4.49999C12.0004 4.30097 11.9214 4.1101 11.7806 3.96936C11.6399 3.82863 11.449 3.74957 11.25 3.74957C11.051 3.74957 10.8601 3.82863 10.7194 3.96936L3.21937 11.4694C3.14964 11.539 3.09432 11.6217 3.05658 11.7128C3.01884 11.8038 2.99941 11.9014 2.99941 12C2.99941 12.0986 3.01884 12.1961 3.05658 12.2872C3.09432 12.3782 3.14964 12.461 3.21937 12.5306L10.7194 20.0306C10.7891 20.1003 10.8718 20.1556 10.9628 20.1933C11.0539 20.231 11.1515 20.2504 11.25 20.2504C11.3485 20.2504 11.4461 20.231 11.5372 20.1933C11.6282 20.1556 11.7109 20.1003 11.7806 20.0306C11.8503 19.9609 11.9056 19.8782 11.9433 19.7872C11.981 19.6961 12.0004 19.5985 12.0004 19.5C12.0004 19.4014 11.981 19.3039 11.9433 19.2128C11.9056 19.1218 11.8503 19.039 11.7806 18.9694L4.81031 12Z" fill="white"/>
</svg>
