<svg width="40" height="41" viewBox="0 0 40 41" fill="none" xmlns="http://www.w3.org/2000/svg">
<path d="M27.281 26.7198C27.3507 26.7895 27.406 26.8722 27.4437 26.9632C27.4814 27.0543 27.5008 27.1519 27.5008 27.2504C27.5008 27.349 27.4814 27.4465 27.4437 27.5376C27.406 27.6286 27.3507 27.7114 27.281 27.781C27.2114 27.8507 27.1286 27.906 27.0376 27.9437C26.9465 27.9814 26.849 28.0008 26.7504 28.0008C26.6519 28.0008 26.5543 27.9814 26.4632 27.9437C26.3722 27.906 26.2895 27.8507 26.2198 27.781L20.0004 21.5607L13.781 27.781C13.6403 27.9218 13.4494 28.0008 13.2504 28.0008C13.0514 28.0008 12.8605 27.9218 12.7198 27.781C12.5791 27.6403 12.5 27.4494 12.5 27.2504C12.5 27.0514 12.5791 26.8605 12.7198 26.7198L18.9401 20.5004L12.7198 14.281C12.5791 14.1403 12.5 13.9494 12.5 13.7504C12.5 13.5514 12.5791 13.3605 12.7198 13.2198C12.8605 13.0791 13.0514 13 13.2504 13C13.4494 13 13.6403 13.0791 13.781 13.2198L20.0004 19.4401L26.2198 13.2198C26.3605 13.0791 26.5514 13 26.7504 13C26.9494 13 27.1403 13.0791 27.281 13.2198C27.4218 13.3605 27.5008 13.5514 27.5008 13.7504C27.5008 13.9494 27.4218 14.1403 27.281 14.281L21.0607 20.5004L27.281 26.7198Z" fill="#FCFEFF"/>
</svg>
