<svg width="103" height="16" viewBox="0 0 103 16" fill="none" xmlns="http://www.w3.org/2000/svg">
<g id="Frame" clip-path="url(#clip0_88_432)">
<g id="Group">
<path id="Vector" d="M4.83537 15.4542C3.91284 15.4542 3.13023 15.3066 2.48756 15.0125C1.84593 14.7184 1.34735 14.2905 0.992842 13.7286C0.638338 13.1678 0.38438 12.5417 0.229933 11.8502C0.0765214 11.1587 -0.0012207 10.3544 -0.0012207 9.43734C-0.0012207 7.56208 0.366759 6.10424 1.10272 5.06384C1.83868 4.02343 3.1095 3.50375 4.91519 3.50375C6.92197 3.50375 8.19902 3.92118 8.74736 4.75603V0.505859H11.0952V15.1464L9.30917 15.3309L9.04796 14.0986C8.3659 15.002 6.96136 15.4542 4.83434 15.4542H4.83537ZM5.35677 13.2775C6.58716 13.2775 7.45995 12.9834 7.97512 12.3941C8.49029 11.8059 8.74736 10.8203 8.74736 9.43734C8.74736 8.05435 8.49962 7.13095 8.00518 6.58281C7.5097 6.03573 6.62759 5.76166 5.35677 5.76166C4.21966 5.76166 3.43705 6.06946 3.00895 6.68611C2.58085 7.30171 2.36732 8.21984 2.36732 9.43734C2.36732 10.6548 2.585 11.652 3.01932 12.3014C3.45364 12.9517 4.23313 13.2764 5.35677 13.2764V13.2775Z" fill="black"/>
<path id="Vector_2" d="M21.8223 13.9555C20.9329 14.9548 19.4983 15.4545 17.5185 15.4545C15.5386 15.4545 14.104 14.9548 13.2147 13.9555C12.3253 12.9562 11.8806 11.4573 11.8806 9.45867C11.8806 7.46008 12.3253 5.96113 13.2147 4.96184C14.104 3.96254 15.5386 3.46289 17.5185 3.46289C19.4983 3.46289 20.9329 3.96254 21.8223 4.96184C22.7116 5.96113 23.1563 7.46008 23.1563 9.45867C23.1563 11.4573 22.7116 12.9562 21.8223 13.9555ZM14.9799 12.3543C15.4816 12.9847 16.3275 13.2988 17.5185 13.2988C18.7095 13.2988 19.5553 12.9805 20.057 12.3438C20.5587 11.7071 20.8096 10.7658 20.8096 9.51981C20.8096 8.27385 20.5587 7.33675 20.057 6.70639C19.5553 6.07709 18.7095 5.76191 17.5185 5.76191C16.3275 5.76191 15.4816 6.07709 14.9799 6.70639C14.4782 7.33569 14.2274 8.27385 14.2274 9.51981C14.2274 10.7658 14.4782 11.724 14.9799 12.3533V12.3543Z" fill="black"/>
<path id="Vector_3" d="M23.9509 15.4544V4.0995L25.7773 3.95614L25.9784 4.96282C26.5403 4.11426 27.8712 3.68945 29.9713 3.68945C31.8443 3.68945 32.968 4.14167 33.3422 5.04504C33.9703 4.14167 35.3883 3.68945 37.5962 3.68945C38.439 3.68945 39.1314 3.79908 39.6725 4.01834C40.2146 4.23759 40.6157 4.57596 40.8759 5.0345C41.1371 5.49304 41.3102 5.97898 41.3973 6.49233C41.4844 7.00569 41.5279 7.66661 41.5279 8.47406V15.4554H39.1801V8.9463C39.1801 8.52255 39.1728 8.19999 39.1604 7.98074C39.1469 7.76148 39.1003 7.5085 39.0205 7.22072C38.9406 6.93295 38.8194 6.72108 38.6597 6.58404C38.4991 6.44701 38.2648 6.32684 37.958 6.22459C37.6501 6.12234 37.2687 6.07069 36.8147 6.07069C35.6371 6.07069 34.8587 6.32368 34.4772 6.8307C34.0958 7.33773 33.905 8.11039 33.905 9.1508V15.4544H31.5779V8.94525C31.5779 8.53415 31.5707 8.21581 31.5583 7.99023C31.5448 7.76465 31.495 7.50744 31.408 7.21967C31.3209 6.9319 31.1975 6.72002 31.0369 6.58299C30.8762 6.44595 30.6419 6.32578 30.3351 6.22354C30.0273 6.12129 29.6458 6.06964 29.1918 6.06964C28.0142 6.06964 27.2389 6.32262 26.8647 6.82965C26.4905 7.33668 26.3029 8.10934 26.3029 9.14975V15.4533H23.9551L23.9509 15.4544Z" fill="black"/>
<path id="Vector_4" d="M46.4475 15.454C44.9092 15.454 43.8457 15.1462 43.2569 14.5295C42.6682 13.9139 42.3738 13.0506 42.3738 11.9417C42.3738 10.3268 42.8983 9.221 43.9494 8.62543C44.9994 8.02986 46.915 7.7326 49.6981 7.7326H50.2599C50.233 6.99367 50.0526 6.47294 49.7178 6.17251C49.383 5.87209 48.6875 5.7203 47.6312 5.7203C46.5076 5.7203 45.4244 6.0418 44.3806 6.68587L43.1564 4.81693C43.6249 4.48804 44.2904 4.18341 45.1528 3.90301C46.0152 3.62262 46.9212 3.48242 47.8717 3.48242C48.8222 3.48242 49.6401 3.56464 50.2496 3.72908C50.858 3.89353 51.3297 4.17392 51.6645 4.57132C51.9983 4.96872 52.2232 5.43358 52.3362 5.96802C52.4502 6.5014 52.5072 7.20765 52.5072 8.08256V11.9427C52.5072 12.4772 52.5642 12.8124 52.6782 12.9494C52.7912 13.0864 53.0898 13.1549 53.5707 13.1549V15.2294C53.4639 15.2568 53.1426 15.2705 52.6077 15.2705C52.019 15.2705 51.5774 15.1883 51.283 15.0239C50.9886 14.8594 50.7679 14.5453 50.6207 14.0794C49.9521 14.9965 48.561 15.455 46.4475 15.455V15.454ZM46.8486 13.4006C48.0521 13.4006 48.9217 13.1539 49.4566 12.6616C49.9915 12.1683 50.2589 11.3819 50.2589 10.3004V9.70484H49.837C48.3651 9.70484 47.2518 9.77336 46.4962 9.91039C45.7405 10.0474 45.2316 10.253 44.9714 10.526C44.7102 10.8001 44.5806 11.2112 44.5806 11.7582C44.5806 12.3053 44.7444 12.7333 45.0719 13.001C45.3995 13.2677 45.9914 13.4016 46.8476 13.4016L46.8486 13.4006Z" fill="black"/>
</g>
<g id="Group_2">
<path id="Vector_5" d="M53.5606 4.81823V4.3249H55.6275L55.7073 0.505859H56.1489V4.3249H59.4192V4.81823H56.1489V13.0118C56.1489 13.697 56.2619 14.1924 56.4899 14.5002C56.7169 14.808 57.2124 14.9619 57.9743 14.9619H59.4192V15.4553H57.9743C56.9844 15.4553 56.3458 15.2603 56.0577 14.8702C55.7695 14.4802 55.6265 13.8604 55.6265 13.0118V4.81823H53.5596H53.5606Z" fill="black"/>
<path id="Vector_6" d="M65.1743 15.4537C64.3585 15.4537 63.6526 15.3578 63.0576 15.1659C62.4627 14.9741 61.9838 14.7211 61.623 14.4059C61.2623 14.0907 60.9742 13.6765 60.7606 13.1631C60.5461 12.6497 60.403 12.1195 60.3294 11.5714C60.2558 11.0243 60.2185 10.3802 60.2185 9.64132C60.2185 8.71054 60.289 7.91363 60.4289 7.24954C60.5689 6.58545 60.8135 5.98355 61.1618 5.44279C61.509 4.90203 62.0076 4.49831 62.6565 4.23162C63.3054 3.96493 64.1108 3.83105 65.0748 3.83105C65.6501 3.83105 66.158 3.88903 66.5996 4.00604C67.0412 4.12199 67.4122 4.2664 67.7128 4.43717C68.0134 4.60899 68.2643 4.85143 68.4654 5.16661C68.6665 5.48179 68.823 5.77589 68.937 6.04996C69.05 6.32403 69.134 6.68348 69.1879 7.12831C69.2407 7.57315 69.2749 7.95368 69.2884 8.26781C69.3019 8.58299 69.3081 8.99304 69.3081 9.50006H60.7409V9.64342C60.7409 10.5057 60.7979 11.232 60.912 11.8202C61.025 12.4094 61.2333 12.9565 61.5339 13.4625C61.8345 13.9695 62.2896 14.3458 62.898 14.5914C63.5065 14.8381 64.2652 14.9614 65.1753 14.9614C66.0181 14.9614 66.6898 14.8623 67.1915 14.6642C67.6932 14.466 68.2249 14.1613 68.7867 13.7502L69.1081 14.1613C67.9305 15.0236 66.6203 15.4547 65.1753 15.4547L65.1743 15.4537ZM65.0738 4.32438C63.4951 4.32438 62.3922 4.71756 61.763 5.50498C61.1338 6.2924 60.7928 7.45931 60.7399 9.00569H68.7857C68.7722 8.55347 68.7556 8.20456 68.7359 7.95895C68.7162 7.71229 68.6758 7.39395 68.6157 7.00393C68.5556 6.61391 68.4789 6.31243 68.3856 6.10056C68.2912 5.88868 68.1544 5.65256 67.9741 5.39219C67.7937 5.13183 67.576 4.93682 67.3221 4.80716C67.0681 4.67751 66.7499 4.56472 66.3695 4.46879C65.988 4.37287 65.5568 4.32543 65.0748 4.32543L65.0738 4.32438Z" fill="black"/>
<path id="Vector_7" d="M75.0242 15.4537C73.1916 15.4537 71.9073 14.9888 71.1713 14.057C70.4354 13.1262 70.0674 11.6547 70.0674 9.64237C70.0674 7.63007 70.4385 6.15853 71.1806 5.22775C71.9228 4.29697 73.204 3.83105 75.0232 3.83105C76.5345 3.83105 77.7317 4.31068 78.6149 5.26886L78.2541 5.61777C77.4114 4.75551 76.3344 4.32438 75.0242 4.32438C73.4051 4.32438 72.2618 4.74919 71.5932 5.59774C70.9246 6.4463 70.5898 7.79451 70.5898 9.64342C70.5898 11.4923 70.9205 12.8405 71.5828 13.6891C72.2452 14.5377 73.3916 14.9625 75.0242 14.9625C76.2411 14.9625 77.3316 14.5387 78.2946 13.6891L78.6356 14.038C77.5783 14.9825 76.3749 15.4547 75.0242 15.4547V15.4537Z" fill="black"/>
<path id="Vector_8" d="M79.3497 15.4542V0.505859H79.8711V6.29609C80.3531 4.80452 81.7099 4.05821 83.9437 4.05821C84.6662 4.05821 85.2747 4.13411 85.7701 4.28379C86.2646 4.43453 86.6491 4.62638 86.9238 4.85828C87.1975 5.09124 87.4089 5.42012 87.5561 5.84388C87.7033 6.26868 87.7966 6.67873 87.837 7.07613C87.8775 7.47353 87.8972 7.98688 87.8972 8.61619V15.4542H87.3758V8.61619C87.3758 7.90466 87.3457 7.34282 87.2856 6.93277C87.2255 6.52167 87.0876 6.11162 86.8741 5.70052C86.6595 5.28941 86.3123 4.99532 85.8303 4.81717C85.3483 4.63903 84.7201 4.55048 83.9437 4.55048C83.1145 4.55048 82.4251 4.66011 81.8768 4.87937C81.3285 5.09862 80.9107 5.42012 80.6226 5.84493C80.3344 6.26974 80.1375 6.72828 80.0307 7.22055C79.9239 7.71387 79.87 8.30839 79.87 9.00726V15.4553H79.3486L79.3497 15.4542Z" fill="black"/>
</g>
<path id="Vector_9" d="M103 6.91798C103 6.4626 102.748 6.04728 102.35 5.84489L92.061 0.625988C91.2836 0.231751 90.3714 0.810457 90.3714 1.69907C90.3714 2.16921 90.6399 2.59507 91.0576 2.78902L93.678 4.00652C94.0958 4.20048 94.3642 4.62739 94.3642 5.09647V5.85016C94.3642 6.30343 94.6151 6.7177 95.011 6.92008L95.039 6.93484C95.9357 7.39233 95.9118 8.70997 94.9996 9.13372L91.0566 10.9647C90.6388 11.1587 90.3704 11.5856 90.3704 12.0547V14.2999C90.3704 15.1875 91.2805 15.7662 92.0579 15.3741L102.346 10.1773C102.745 9.97595 102.998 9.55958 102.998 9.10315V6.91798H103Z" fill="url(#paint0_linear_88_432)"/>
</g>
<defs>
<linearGradient id="paint0_linear_88_432" x1="96.6851" y1="15.4995" x2="96.6851" y2="0.499495" gradientUnits="userSpaceOnUse">
<stop stop-color="#7D55B7"/>
<stop offset="1" stop-color="#26C07C"/>
</linearGradient>
<clipPath id="clip0_88_432">
<rect width="103" height="15" fill="white" transform="translate(0 0.5)"/>
</clipPath>
</defs>
</svg>
