<svg width="79" height="12" viewBox="0 0 79 12" fill="none" xmlns="http://www.w3.org/2000/svg">
<g clip-path="url(#clip0_3302_686)">
<path d="M4.57369 11.5097C3.88319 11.5097 3.29743 11.3992 2.81641 11.1791C2.33616 10.959 1.96298 10.6387 1.69765 10.2182C1.43231 9.79842 1.24223 9.32976 1.12663 8.81219C1.0118 8.29463 0.953613 7.69264 0.953613 7.00623C0.953613 5.60264 1.22904 4.51148 1.77988 3.73276C2.33073 2.95404 3.28191 2.56508 4.63343 2.56508C6.13546 2.56508 7.09129 2.87751 7.50171 3.50238V0.321228H9.25899V11.2793L7.92222 11.4174L7.72671 10.4951C7.2162 11.1712 6.16494 11.5097 4.57291 11.5097H4.57369ZM4.96394 9.88047C5.88486 9.88047 6.53812 9.66035 6.92371 9.21931C7.30931 8.77906 7.50171 8.04136 7.50171 7.00623C7.50171 5.97109 7.31629 5.27995 6.94621 4.86968C6.57536 4.4602 5.91512 4.25507 4.96394 4.25507C4.11284 4.25507 3.52708 4.48545 3.20666 4.947C2.88623 5.40776 2.72641 6.09496 2.72641 7.00623C2.72641 7.9175 2.88934 8.66387 3.21441 9.14988C3.53949 9.63668 4.12292 9.87968 4.96394 9.87968V9.88047Z" fill="#FAFAFA"/>
<path d="M17.2873 10.3878C16.6216 11.1358 15.5478 11.5098 14.066 11.5098C12.5841 11.5098 11.5104 11.1358 10.8447 10.3878C10.179 9.63989 9.84619 8.51796 9.84619 7.02206C9.84619 5.52616 10.179 4.40424 10.8447 3.65629C11.5104 2.90834 12.5841 2.53436 14.066 2.53436C15.5478 2.53436 16.6216 2.90834 17.2873 3.65629C17.953 4.40424 18.2858 5.52616 18.2858 7.02206C18.2858 8.51796 17.953 9.63989 17.2873 10.3878ZM12.166 9.18938C12.5415 9.66119 13.1746 9.89631 14.066 9.89631C14.9574 9.89631 15.5905 9.65803 15.966 9.18149C16.3415 8.70495 16.5293 8.00039 16.5293 7.06782C16.5293 6.13525 16.3415 5.43385 15.966 4.96204C15.5905 4.49103 14.9574 4.25512 14.066 4.25512C13.1746 4.25512 12.5415 4.49103 12.166 4.96204C11.7904 5.43306 11.6027 6.13525 11.6027 7.06782C11.6027 8.00039 11.7904 8.71757 12.166 9.18859V9.18938Z" fill="#FAFAFA"/>
<path d="M18.8813 11.5096V3.01077L20.2484 2.90347L20.3989 3.65694C20.8194 3.02182 21.8156 2.70386 23.3874 2.70386C24.7894 2.70386 25.6304 3.04233 25.9105 3.71848C26.3806 3.04233 27.442 2.70386 29.0945 2.70386C29.7253 2.70386 30.2435 2.78591 30.6485 2.95002C31.0543 3.11413 31.3546 3.36739 31.5493 3.71059C31.7448 4.0538 31.8744 4.41752 31.9395 4.80175C32.0047 5.18598 32.0373 5.68067 32.0373 6.28502V11.5104H30.28V6.63848C30.28 6.32132 30.2746 6.07989 30.2653 5.91578C30.2552 5.75167 30.2203 5.56232 30.1605 5.34693C30.1008 5.13154 30.01 4.97295 29.8905 4.87039C29.7703 4.76782 29.5949 4.67788 29.3653 4.60135C29.1349 4.52482 28.8494 4.48616 28.5095 4.48616C27.6282 4.48616 27.0455 4.67551 26.76 5.05501C26.4745 5.43451 26.3318 6.01283 26.3318 6.79155V11.5096H24.59V6.6377C24.59 6.32999 24.5846 6.09172 24.5752 5.92288C24.5652 5.75404 24.5279 5.56153 24.4628 5.34614C24.3976 5.13075 24.3053 4.97217 24.185 4.8696C24.0647 4.76703 23.8894 4.67709 23.6598 4.60056C23.4293 4.52403 23.1438 4.48537 22.804 4.48537C21.9226 4.48537 21.3423 4.67472 21.0622 5.05422C20.7822 5.43372 20.6417 6.01204 20.6417 6.79076V11.5088H18.8845L18.8813 11.5096Z" fill="#FAFAFA"/>
<path d="M35.7195 11.5094C34.5681 11.5094 33.7721 11.279 33.3314 10.8175C32.8907 10.3567 32.6704 9.71055 32.6704 8.88055C32.6704 7.67184 33.063 6.8442 33.8497 6.39843C34.6356 5.95266 36.0694 5.73017 38.1525 5.73017H38.573C38.5528 5.17709 38.4178 4.78734 38.1672 4.56248C37.9166 4.33762 37.3961 4.22401 36.6055 4.22401C35.7645 4.22401 34.9537 4.46465 34.1724 4.94671L33.2562 3.54786C33.6068 3.3017 34.1049 3.07368 34.7504 2.86381C35.3959 2.65394 36.074 2.54901 36.7855 2.54901C37.4969 2.54901 38.1091 2.61055 38.5653 2.73363C39.0207 2.85671 39.3737 3.06658 39.6243 3.36402C39.8741 3.66147 40.0425 4.00941 40.127 4.40942C40.2124 4.80864 40.255 5.33726 40.255 5.99211V8.88134C40.255 9.28135 40.2977 9.53224 40.383 9.63481C40.4676 9.73738 40.6911 9.78866 41.051 9.78866V11.3414C40.9711 11.3619 40.7306 11.3721 40.3303 11.3721C39.8896 11.3721 39.5591 11.3106 39.3388 11.1875C39.1184 11.0644 38.9532 10.8293 38.843 10.4806C38.3426 11.167 37.3014 11.5102 35.7195 11.5102V11.5094ZM36.0197 9.97249C36.9205 9.97249 37.5714 9.78787 37.9717 9.41942C38.3721 9.05018 38.5722 8.4616 38.5722 7.65211V7.20634H38.2565C37.1548 7.20634 36.3215 7.25762 35.7559 7.36019C35.1903 7.46276 34.8094 7.61661 34.6147 7.82095C34.4192 8.02609 34.3222 8.33379 34.3222 8.74327C34.3222 9.15275 34.4448 9.47307 34.6899 9.67347C34.9351 9.87308 35.3781 9.97328 36.0189 9.97328L36.0197 9.97249Z" fill="#FAFAFA"/>
<path d="M41.0423 3.54893V3.17969H42.5893L42.649 0.321228H42.9796V3.17969H45.4273V3.54893H42.9796V9.68165C42.9796 10.1945 43.0641 10.5653 43.2348 10.7957C43.4047 11.0261 43.7756 11.1413 44.3458 11.1413H45.4273V11.5105H44.3458C43.6049 11.5105 43.127 11.3645 42.9113 11.0726C42.6956 10.7807 42.5885 10.3168 42.5885 9.68165V3.54893H41.0415H41.0423Z" fill="#FAFAFA"/>
<path d="M49.7352 11.5093C49.1246 11.5093 48.5962 11.4375 48.1509 11.2939C47.7056 11.1503 47.3471 10.9609 47.0771 10.725C46.8072 10.4891 46.5915 10.179 46.4316 9.79481C46.271 9.41058 46.164 9.01372 46.1089 8.60345C46.0538 8.19398 46.0259 7.71191 46.0259 7.15884C46.0259 6.46217 46.0786 5.86571 46.1834 5.36865C46.2881 4.87159 46.4712 4.42109 46.7319 4.01634C46.9918 3.6116 47.365 3.30942 47.8507 3.10981C48.3363 2.9102 48.9392 2.81 49.6607 2.81C50.0913 2.81 50.4714 2.85339 50.802 2.94097C51.1325 3.02776 51.4102 3.13584 51.6352 3.26366C51.8602 3.39226 52.048 3.57373 52.1985 3.80963C52.349 4.04554 52.4661 4.26566 52.5515 4.47079C52.636 4.67593 52.6989 4.94497 52.7392 5.27792C52.7788 5.61087 52.8044 5.89569 52.8145 6.1308C52.8246 6.36671 52.8292 6.67362 52.8292 7.05311H46.4169V7.16042C46.4169 7.8058 46.4596 8.3494 46.5449 8.78965C46.6295 9.23069 46.7854 9.64017 47.0104 10.0189C47.2354 10.3984 47.576 10.68 48.0314 10.8639C48.4868 11.0485 49.0548 11.1408 49.736 11.1408C50.3667 11.1408 50.8695 11.0666 51.245 10.9183C51.6205 10.77 52.0185 10.542 52.439 10.2343L52.6795 10.542C51.7981 11.1874 50.8175 11.51 49.736 11.51L49.7352 11.5093ZM49.6599 3.17924C48.4783 3.17924 47.6528 3.47353 47.1819 4.06289C46.7109 4.65226 46.4557 5.52566 46.4161 6.68309H52.4382C52.4281 6.34461 52.4157 6.08346 52.401 5.89963C52.3862 5.71501 52.356 5.47674 52.311 5.18482C52.266 4.8929 52.2086 4.66725 52.1387 4.50866C52.0681 4.35008 51.9657 4.17335 51.8307 3.97847C51.6957 3.78359 51.5328 3.63763 51.3427 3.54059C51.1526 3.44355 50.9145 3.35913 50.6297 3.28733C50.3442 3.21553 50.0215 3.18003 49.6607 3.18003L49.6599 3.17924Z" fill="#FAFAFA"/>
<path d="M57.107 11.5093C55.7354 11.5093 54.7741 11.1614 54.2232 10.4639C53.6724 9.76726 53.397 8.66585 53.397 7.15969C53.397 5.65353 53.6747 4.55212 54.2302 3.85545C54.7857 3.15879 55.7447 2.81006 57.1063 2.81006C58.2374 2.81006 59.1335 3.16904 59.7946 3.88622L59.5246 4.14737C58.8938 3.50199 58.0877 3.1793 57.107 3.1793C55.8952 3.1793 55.0394 3.49726 54.539 4.13238C54.0386 4.76751 53.788 5.77661 53.788 7.16048C53.788 8.54434 54.0355 9.55344 54.5313 10.1886C55.027 10.8237 55.8851 11.1417 57.107 11.1417C58.0179 11.1417 58.8341 10.8245 59.5548 10.1886L59.8101 10.4497C59.0187 11.1566 58.118 11.5101 57.107 11.5101V11.5093Z" fill="#FAFAFA"/>
<path d="M60.345 11.5097V0.321228H60.7353V4.65508C61.096 3.53867 62.1116 2.98008 63.7835 2.98008C64.3243 2.98008 64.7797 3.03689 65.1506 3.14892C65.5207 3.26174 65.8085 3.40534 66.0141 3.57891C66.2189 3.75328 66.3772 3.99944 66.4874 4.31661C66.5975 4.63456 66.6673 4.94148 66.6976 5.23892C66.7279 5.53636 66.7426 5.92059 66.7426 6.39161V11.5097H66.3524V6.39161C66.3524 5.85905 66.3299 5.43853 66.2849 5.13162C66.2399 4.82392 66.1367 4.51701 65.9768 4.20931C65.8162 3.9016 65.5563 3.68148 65.1956 3.54814C64.8348 3.41481 64.3647 3.34853 63.7835 3.34853C63.1629 3.34853 62.6469 3.43059 62.2365 3.59469C61.8261 3.7588 61.5134 3.99944 61.2977 4.31739C61.0821 4.63535 60.9347 4.97856 60.8547 5.34701C60.7748 5.71625 60.7345 6.16123 60.7345 6.68432V11.5105H60.3442L60.345 11.5097Z" fill="#FAFAFA"/>
<path d="M78.0471 5.12053C78.0471 4.7797 77.8586 4.46884 77.5606 4.31736L69.8596 0.411133C69.2778 0.116055 68.595 0.549203 68.595 1.21431C68.595 1.56619 68.796 1.88494 69.1086 2.03011L71.0699 2.94138C71.3826 3.08655 71.5836 3.40609 71.5836 3.75718V4.3213C71.5836 4.66056 71.7713 4.97063 72.0677 5.12211L72.0886 5.13316C72.7597 5.47557 72.7419 6.4618 72.0591 6.77896L69.1078 8.14942C68.7952 8.29459 68.5942 8.61412 68.5942 8.96522V10.6457C68.5942 11.3101 69.2754 11.7432 69.8573 11.4497L77.5575 7.56005C77.8562 7.40936 78.0455 7.09771 78.0455 6.75608V5.12053H78.0471Z" fill="url(#paint0_linear_3302_686)"/>
</g>
<defs>
<linearGradient id="paint0_linear_3302_686" x1="73.3207" y1="11.5436" x2="73.3207" y2="0.316455" gradientUnits="userSpaceOnUse">
<stop stop-color="#7D55B7"/>
<stop offset="1" stop-color="#26C07C"/>
</linearGradient>
<clipPath id="clip0_3302_686">
<rect width="77.093" height="11.2271" fill="white" transform="translate(0.953613 0.316833)"/>
</clipPath>
</defs>
</svg>
