<svg width="26" height="20" viewBox="0 0 26 20" fill="none" xmlns="http://www.w3.org/2000/svg">
<g id="Group">
<path id="Vector" fill-rule="evenodd" clip-rule="evenodd" d="M0 0.25H26V19.75H0V0.25Z" fill="#229E45"/>
<path id="Vector_2" fill-rule="evenodd" clip-rule="evenodd" d="M13.0569 17.9626L25.3053 10.0123L12.9838 2.0376L0.694702 10.0285L13.0569 17.9626Z" fill="#F8E509"/>
<path id="Vector_3" fill-rule="evenodd" clip-rule="evenodd" d="M18.395 10C18.395 12.8559 16.0753 15.1716 13.2113 15.1716C12.1878 15.17 11.1878 14.8649 10.3376 14.2951C9.48749 13.7252 8.82538 12.9161 8.43502 11.97C8.04465 11.0239 7.94356 9.9833 8.1445 8.97975C8.34545 7.97621 8.83943 7.05476 9.56398 6.33192C10.2885 5.60907 11.2111 5.11726 12.2152 4.91868C13.2192 4.72009 14.2595 4.82364 15.2047 5.21623C16.1499 5.60882 16.9574 6.27283 17.5253 7.12431C18.0932 7.9758 18.3958 8.97653 18.395 10Z" fill="#2B49A3"/>
<path id="Vector_4" fill-rule="evenodd" clip-rule="evenodd" d="M11.509 13.0996L11.3465 13.0062L11.184 13.0874L11.2206 12.9046L11.0906 12.7665L11.2734 12.7462L11.3628 12.5837L11.44 12.7543L11.6187 12.7868L11.4847 12.9087M14.9784 13.9771L14.82 13.8837L14.6575 13.9649L14.69 13.7821L14.564 13.648L14.7468 13.6277L14.8322 13.4612L14.9134 13.6318L15.0922 13.6643L14.954 13.7902M13.4834 12.5715L13.3453 12.4902L13.2031 12.5634L13.2356 12.4049L13.1218 12.2871L13.2843 12.2708L13.3575 12.1246L13.4225 12.2749L13.5809 12.3034L13.459 12.413M16.9934 12.0677L16.8553 11.9865L16.7131 12.0596L16.7456 11.9012L16.6359 11.7874L16.7943 11.7712L16.8675 11.629L16.9325 11.7752L17.0868 11.8037L16.969 11.9093M13.4225 11.0155L13.26 10.9262L13.0975 11.0074L13.13 10.8205L13.004 10.6865L13.1868 10.6662L13.2722 10.4996L13.3534 10.6702L13.5322 10.7027L13.394 10.8327M9.14466 9.41085L8.98216 9.32148L8.81966 9.40273L8.86029 9.21585L8.72622 9.08179L8.9131 9.06147L8.99435 8.89491L9.0756 9.06554L9.25435 9.09804L9.12029 9.22397M9.6606 11.5477L9.4981 11.4543L9.3356 11.5355L9.37216 11.3527L9.24216 11.2187L9.42497 11.1943L9.51029 11.0318L9.59154 11.2024L9.77029 11.2349L9.63622 11.3609M14.9987 8.62679L14.8525 8.54554L14.7062 8.61866L14.7387 8.45616L14.625 8.33429L14.7875 8.31397L14.8647 8.16772L14.9337 8.3221L15.0962 8.35054L14.9743 8.46023M14.7022 10.0162L14.5925 9.95116L14.4747 10.008L14.499 9.87804L14.4097 9.7846L14.5397 9.76835L14.6006 9.6546L14.6534 9.77647L14.7753 9.79679L14.6859 9.88616M8.90904 11.9337L8.79935 11.8727L8.68966 11.9255L8.71404 11.8037L8.62872 11.7143L8.7506 11.698L8.80747 11.5884L8.86029 11.7021L8.98216 11.7265L8.88872 11.8077M17.0218 12.4293L16.9325 12.3846L16.8431 12.4252L16.8634 12.3318L16.7943 12.2668L16.8918 12.2546L16.9406 12.1733L16.9812 12.2546L17.0828 12.2749L17.0056 12.3359" fill="#FFFFEF"/>
<path id="Vector_5" fill-rule="evenodd" clip-rule="evenodd" d="M8.90904 11.9337L8.79935 11.8728L8.68966 11.9256L8.71404 11.8037L8.62872 11.7143L8.7506 11.6981L8.80747 11.5884L8.86029 11.7021L8.98216 11.7265L8.88872 11.8078" fill="#FFFFEF"/>
<path id="Vector_6" fill-rule="evenodd" clip-rule="evenodd" d="M8.90904 11.9337L8.79935 11.8727L8.68966 11.9255L8.71404 11.8037L8.62872 11.7143L8.7506 11.698L8.80747 11.5884L8.86029 11.7021L8.98216 11.7265L8.88872 11.8077M10.6072 11.9296L10.5015 11.8727L10.3918 11.9255L10.4162 11.8037L10.3309 11.7143L10.4528 11.698L10.5097 11.5884L10.5625 11.7021L10.6843 11.7224L10.5909 11.8077M10.3959 12.4983L10.2903 12.4374L10.1806 12.4943L10.205 12.3724L10.1197 12.279L10.2415 12.2627L10.2984 12.153L10.3512 12.2668L10.4731 12.2912L10.3797 12.3724M13.9303 11.4705L13.8247 11.4055L13.7109 11.4624L13.7353 11.3405L13.654 11.2471L13.7759 11.2349L13.8328 11.1252L13.8815 11.239L14.0034 11.2593L13.914 11.3446M12.8943 11.4665L12.7847 11.4055L12.675 11.4624L12.6993 11.3405L12.6181 11.2471L12.74 11.2349L12.7968 11.1212L12.8456 11.239L12.9675 11.2593L12.8781 11.3446M10.0831 11.109L10.014 11.0683L9.94497 11.1009L9.96122 11.0237L9.90841 10.9668L9.9856 10.9587L10.0181 10.8896L10.0506 10.9627L10.1278 10.9749L10.0709 11.0277M16.8878 12.8721L16.7822 12.8112L16.6725 12.868L16.6968 12.7462L16.6115 12.6527L16.7334 12.6365L16.7903 12.5268L16.8431 12.6405L16.965 12.6649L16.8715 12.7462M16.0265 12.9899L15.9372 12.933L15.8437 12.9818L15.864 12.8762L15.795 12.803L15.8965 12.7909L15.9453 12.6974L15.9859 12.7949L16.0875 12.8112L16.0103 12.8843M16.4328 12.9777L16.3515 12.929L16.2662 12.9696L16.2825 12.8762L16.2175 12.8071L16.3109 12.7949L16.3556 12.7137L16.3962 12.7949L16.4897 12.8152L16.4206 12.8802M17.6028 11.954L17.5215 11.9133L17.4403 11.954L17.4606 11.8605L17.3956 11.7915L17.489 11.7793L17.5297 11.698L17.5703 11.7833L17.6556 11.7996L17.5906 11.8646M16.0143 13.5627L15.9128 13.5058L15.8031 13.5546L15.8275 13.4409L15.7462 13.3596L15.8681 13.3474L15.9209 13.2458L15.9697 13.3515L16.0915 13.3718L15.9981 13.449M16.0225 14.0258L15.925 13.969L15.8275 14.0218L15.8518 13.908L15.7747 13.8268L15.8843 13.8105L15.9331 13.709L15.9778 13.8146L16.0875 13.8349L16.0062 13.9162M15.2343 12.9777L15.1572 12.929L15.0759 12.9696L15.0922 12.8802L15.0312 12.8112L15.1206 12.803L15.1612 12.7218L15.2018 12.803L15.2912 12.8193L15.2262 12.8843M14.5031 12.9777L14.4218 12.929L14.3406 12.9696L14.3609 12.8802L14.2959 12.8112L14.3893 12.803L14.43 12.7218L14.4706 12.803L14.5559 12.8193L14.4909 12.8843M13.2559 11.8849L13.1747 11.8402L13.0934 11.8808L13.1137 11.7874L13.0487 11.7224L13.1381 11.7102L13.1787 11.629L13.2193 11.7102L13.3087 11.7305L13.2437 11.7915M13.394 14.1071L13.329 14.0705L13.2559 14.1071L13.2722 14.0258L13.2193 13.969L13.2965 13.9608L13.3331 13.8918L13.3656 13.9649L13.4428 13.9771L13.3859 14.0299M11.509 10.5118L11.3465 10.4183L11.184 10.4996L11.2206 10.3168L11.0906 10.1827L11.2734 10.1583L11.3628 9.99585L11.44 10.1665L11.6187 10.199L11.4847 10.3249" fill="#FFFFEF"/>
<path id="Vector_7" fill-rule="evenodd" clip-rule="evenodd" d="M18.0538 11.8606C18.1544 11.5994 18.2332 11.3304 18.2894 11.0562C15.535 8.63899 12.4678 7.39993 8.5922 7.65587C8.45163 7.92785 8.33606 8.21204 8.24689 8.50493C12.8375 8.06618 16.2094 10.0974 18.0538 11.8606Z" fill="white"/>
<path id="Vector_8" d="M16.8188 10.5037L16.9122 10.5565C16.8982 10.5841 16.894 10.6155 16.9 10.6458C16.9095 10.6752 16.9299 10.6999 16.9569 10.7149C16.9853 10.7352 17.0138 10.7474 17.0381 10.7433C17.0625 10.7433 17.0788 10.7312 17.0909 10.7149C17.098 10.7041 17.1009 10.6911 17.0991 10.6783C17.0957 10.6633 17.0888 10.6494 17.0788 10.6377C17.0706 10.6255 17.0503 10.5971 17.0178 10.5646C16.9844 10.5301 16.9594 10.4884 16.9447 10.4427C16.9346 10.4081 16.9372 10.3711 16.9521 10.3382C16.967 10.3054 16.9932 10.2791 17.0259 10.264C17.0555 10.2516 17.0881 10.2488 17.1194 10.2558C17.1576 10.2646 17.1935 10.2812 17.225 10.3046C17.2819 10.3452 17.3184 10.3858 17.3306 10.4346C17.3362 10.4574 17.337 10.4811 17.3328 10.5042C17.3286 10.5273 17.3195 10.5493 17.3063 10.5687L17.2088 10.5077C17.2209 10.4833 17.225 10.459 17.2169 10.4387C17.2128 10.4183 17.1966 10.398 17.1681 10.3818C17.1473 10.365 17.1217 10.3551 17.095 10.3533C17.0876 10.3531 17.0803 10.3549 17.0739 10.3584C17.0675 10.362 17.0621 10.3673 17.0584 10.3737C17.0503 10.3858 17.0503 10.398 17.0544 10.4143C17.0584 10.4305 17.0788 10.463 17.1194 10.5037C17.16 10.5443 17.1844 10.5808 17.2006 10.6052C17.2151 10.6318 17.2217 10.6621 17.2195 10.6923C17.2174 10.7226 17.2066 10.7515 17.1884 10.7758C17.1694 10.8035 17.1425 10.8247 17.1113 10.8368C17.0808 10.8508 17.0467 10.8551 17.0138 10.849C16.9772 10.8408 16.9406 10.8246 16.9 10.7962C16.8391 10.7555 16.8025 10.7108 16.7903 10.6621C16.7771 10.6068 16.7858 10.5486 16.8147 10.4996L16.8188 10.5037ZM16.3475 10.1949L16.4491 10.2477C16.4365 10.2758 16.4336 10.3072 16.4409 10.3371C16.4513 10.365 16.4716 10.3881 16.4978 10.4021C16.5303 10.4224 16.5547 10.4305 16.5791 10.4265C16.6034 10.4265 16.6197 10.4143 16.6319 10.394C16.638 10.3843 16.6409 10.3729 16.64 10.3615C16.64 10.3493 16.6319 10.333 16.6197 10.3208C16.5989 10.2957 16.5772 10.2713 16.5547 10.2477C16.51 10.203 16.4816 10.1665 16.4734 10.134C16.4668 10.1131 16.4648 10.091 16.4676 10.0692C16.4704 10.0474 16.478 10.0266 16.4897 10.008C16.5051 9.98296 16.5278 9.96314 16.5547 9.95115C16.5826 9.93828 16.6137 9.93404 16.6441 9.93896C16.6816 9.94529 16.7176 9.95911 16.7497 9.97959C16.8106 10.0202 16.8472 10.0608 16.8594 10.1055C16.8668 10.1284 16.8692 10.1525 16.8664 10.1764C16.8636 10.2002 16.8556 10.2232 16.8431 10.2437L16.7416 10.1868C16.7538 10.1583 16.7578 10.138 16.7497 10.1177C16.7416 10.0974 16.7253 10.0771 16.6969 10.0608C16.6744 10.0447 16.6474 10.0362 16.6197 10.0365C16.613 10.0369 16.6066 10.039 16.6009 10.0425C16.5952 10.0461 16.5905 10.051 16.5872 10.0568C16.5791 10.069 16.5791 10.0812 16.5831 10.0974C16.5872 10.1137 16.6116 10.1462 16.6522 10.1868C16.6928 10.2274 16.7213 10.2599 16.7334 10.2843C16.7497 10.3098 16.7584 10.3394 16.7584 10.3696C16.7584 10.3998 16.7497 10.4294 16.7334 10.4549C16.7159 10.4832 16.6905 10.5058 16.6603 10.5199C16.6299 10.5339 16.5958 10.5382 16.5628 10.5321C16.521 10.525 16.481 10.5098 16.445 10.4874C16.3925 10.4594 16.352 10.4132 16.3313 10.3574C16.3156 10.3032 16.3214 10.245 16.3475 10.1949ZM15.7706 10.0405L16.0672 9.55303L16.4247 9.77646L16.3759 9.85771L16.1159 9.69521L16.0509 9.8049L16.2947 9.95521L16.2419 10.0365L15.9981 9.88615L15.9169 10.0202L16.1891 10.1827L16.1403 10.264L15.7706 10.0405ZM14.9297 9.3499L14.9744 9.26865L15.1938 9.37834L15.0922 9.58146C15.0597 9.58959 15.0191 9.59365 14.9703 9.58959C14.9235 9.58443 14.8781 9.57066 14.8363 9.54896C14.7871 9.52501 14.7451 9.4886 14.7144 9.44334C14.6864 9.40129 14.6722 9.35161 14.6738 9.30115C14.6758 9.24863 14.6897 9.19725 14.7144 9.15084C14.7388 9.10199 14.7751 9.06007 14.82 9.02897C14.8629 8.99927 14.9141 8.98366 14.9663 8.98428C15.0069 8.98428 15.0475 8.99646 15.0963 9.0249C15.1613 9.05334 15.2019 9.09397 15.2222 9.13865C15.2433 9.18301 15.2476 9.23353 15.2344 9.28084L15.1247 9.24834C15.1314 9.22113 15.1285 9.19243 15.1166 9.16709C15.1044 9.14271 15.0841 9.12647 15.0516 9.11022C15.0326 9.0994 15.0116 9.09273 14.9899 9.09063C14.9682 9.08853 14.9463 9.09105 14.9256 9.09803C14.885 9.11022 14.8484 9.14678 14.82 9.20365C14.7916 9.26053 14.7794 9.31334 14.7916 9.35803C14.7972 9.37922 14.8074 9.39893 14.8214 9.41577C14.8354 9.43262 14.853 9.44618 14.8728 9.45553C14.8931 9.46772 14.9175 9.47584 14.9419 9.47584C14.9661 9.47952 14.9908 9.47952 15.015 9.47584L15.0475 9.41084L14.9297 9.3499ZM11.2653 8.44396L11.3466 7.87521L11.5172 7.90365L11.5619 8.30178L11.7203 7.93615L11.8909 7.96053L11.8097 8.52115L11.7 8.5049L11.7691 8.06209L11.5903 8.48865L11.4806 8.4724L11.4359 8.01334L11.3709 8.46022L11.2653 8.44396ZM10.6925 8.3749L10.7453 7.80615L11.1638 7.84678L11.1556 7.94428L10.8509 7.91584L10.8388 8.03771L11.1231 8.06615L11.1109 8.16365L10.8266 8.13522L10.8144 8.28959L11.1313 8.31803L11.1231 8.41553L10.6925 8.3749Z" fill="#309E3A"/>
<g id="Group_2">
<path id="Vector_9" d="M8.79534 8.0215C8.79534 7.96057 8.80753 7.91588 8.82378 7.87525C8.83802 7.84636 8.85728 7.82023 8.88065 7.79807C8.90149 7.77705 8.92636 7.76047 8.95378 7.74932C8.9944 7.73713 9.03503 7.729 9.07565 7.729C9.16096 7.729 9.22596 7.7615 9.27878 7.81025C9.30392 7.84131 9.32261 7.87706 9.33377 7.91543C9.34493 7.95379 9.34833 7.994 9.34378 8.03369C9.34378 8.12307 9.31534 8.19619 9.26253 8.249C9.23539 8.27409 9.20328 8.2932 9.16829 8.30509C9.1333 8.31699 9.09621 8.32141 9.0594 8.31807C9.02309 8.31843 8.98708 8.31142 8.95356 8.29746C8.92004 8.28349 8.88971 8.26286 8.8644 8.23682C8.81385 8.17698 8.78902 8.09958 8.79534 8.0215Z" fill="#309E3A"/>
<path id="Vector_10" d="M8.91315 8.02149C8.91315 8.08243 8.92533 8.13118 8.95377 8.16774C8.98221 8.20024 9.01877 8.22055 9.06752 8.22055C9.08861 8.22203 9.10977 8.21878 9.12944 8.21105C9.14912 8.20332 9.16683 8.1913 9.18127 8.17587C9.20971 8.14337 9.2219 8.09462 9.22596 8.02555C9.22596 7.96055 9.21783 7.9118 9.18533 7.8793C9.1721 7.86293 9.1554 7.8497 9.13643 7.84056C9.11746 7.83143 9.0967 7.82662 9.07565 7.82649C9.05428 7.82581 9.03302 7.82982 9.01336 7.83824C8.99371 7.84666 8.97614 7.85929 8.9619 7.87524C8.9294 7.90774 8.91721 7.95649 8.91315 8.02149Z" fill="#F7FFFF"/>
</g>
<g id="Group_3">
<path id="Vector_11" d="M9.46564 8.31411L9.47376 7.74536H9.71751C9.77845 7.74536 9.81907 7.75349 9.84751 7.76567C9.87595 7.7738 9.89626 7.79411 9.91251 7.81849C9.92876 7.84286 9.93689 7.87536 9.93689 7.91192C9.9372 7.95101 9.92269 7.98875 9.89626 8.01755C9.86623 8.04568 9.82758 8.06286 9.78657 8.0663L9.84751 8.11505C9.86376 8.1313 9.88407 8.1638 9.90845 8.20849L9.97751 8.32224H9.83939L9.75814 8.19224L9.70126 8.11099C9.69141 8.09981 9.67881 8.0914 9.6647 8.08661C9.64622 8.08122 9.62707 8.07849 9.60782 8.07849H9.58345V8.31411H9.46564Z" fill="#309E3A"/>
<path id="Vector_12" d="M9.58752 7.98902H9.66877C9.72565 7.98902 9.76221 7.98902 9.7744 7.9809C9.78659 7.9809 9.79877 7.96871 9.8069 7.96059C9.81502 7.95246 9.81909 7.93215 9.81909 7.91996C9.81909 7.89559 9.81502 7.87934 9.80284 7.87121C9.79471 7.85902 9.77846 7.8509 9.76221 7.84684H9.68096L9.58752 7.84277V7.98902Z" fill="white"/>
</g>
<g id="Group_4">
<path id="Vector_13" d="M10.1156 7.77368L10.3268 7.78587C10.3715 7.78587 10.4081 7.78993 10.4325 7.79806C10.4641 7.80953 10.4921 7.82915 10.5137 7.85493C10.5371 7.88333 10.5538 7.91667 10.5625 7.95243C10.5747 7.98899 10.5787 8.03368 10.5747 8.08649C10.5746 8.12796 10.5678 8.16913 10.5543 8.20837C10.5381 8.24899 10.5137 8.28149 10.4853 8.30587C10.4616 8.32537 10.4338 8.33926 10.404 8.34649C10.3797 8.35462 10.3431 8.35462 10.3025 8.35462L10.0872 8.34243L10.1156 7.77368Z" fill="#309E3A"/>
<path id="Vector_14" d="M10.2253 7.87524L10.205 8.25306H10.3593C10.3796 8.25306 10.3959 8.24493 10.4081 8.23274C10.4203 8.22056 10.4325 8.20431 10.4406 8.17993C10.4487 8.15556 10.4568 8.11899 10.4568 8.07431L10.4528 7.97274C10.447 7.95132 10.4358 7.93174 10.4203 7.91587C10.4068 7.9023 10.39 7.8925 10.3715 7.88743C10.3408 7.88059 10.3095 7.87651 10.2781 7.87524H10.2253Z" fill="white"/>
</g>
<g id="Group_5">
<path id="Vector_15" d="M12.9025 8.78932L13.0366 8.23682L13.2153 8.27744L13.3453 8.31807C13.3738 8.33432 13.3982 8.35869 13.4103 8.39525C13.4266 8.42775 13.4266 8.46432 13.4185 8.509C13.4103 8.5415 13.3982 8.56994 13.3778 8.59025C13.3629 8.60809 13.3443 8.62244 13.3232 8.63226C13.3022 8.64209 13.2792 8.64717 13.256 8.64713C13.2275 8.64713 13.1869 8.639 13.1341 8.62682L13.065 8.6065L13.0163 8.81775L12.9025 8.78932Z" fill="#309E3A"/>
<path id="Vector_16" d="M13.1219 8.35864L13.0894 8.51302L13.1504 8.52927C13.191 8.53739 13.2235 8.54552 13.2397 8.54146C13.2555 8.53926 13.2703 8.53222 13.2819 8.52131C13.2935 8.5104 13.3015 8.49615 13.3047 8.48052C13.3047 8.46021 13.3047 8.44395 13.2966 8.4277C13.2877 8.41119 13.2733 8.39827 13.256 8.39114L13.1788 8.37083L13.126 8.35864H13.1219Z" fill="white"/>
</g>
<g id="Group_6">
<path id="Vector_17" d="M13.4306 8.94787L13.6215 8.41162L13.845 8.49287C13.9059 8.51318 13.9425 8.5335 13.9669 8.54975C13.9872 8.57006 14.0034 8.59037 14.0075 8.62287C14.0115 8.65537 14.0156 8.68381 14.0075 8.71631C13.9912 8.75693 13.9669 8.78537 13.9344 8.80568C13.9019 8.82193 13.8612 8.826 13.8125 8.81787C13.8287 8.83818 13.845 8.8585 13.8531 8.88287L13.8856 8.99256L13.91 9.1185L13.784 9.07381L13.7434 8.92756C13.736 8.89448 13.7265 8.86192 13.715 8.83006C13.7096 8.81742 13.7012 8.80627 13.6906 8.79756C13.6825 8.78537 13.6662 8.77725 13.6378 8.76912L13.6175 8.761L13.5362 8.9885L13.4306 8.94787Z" fill="#309E3A"/>
<path id="Vector_18" d="M13.65 8.67557L13.7272 8.704C13.78 8.72432 13.8125 8.73244 13.8287 8.73244C13.8409 8.73244 13.8531 8.73244 13.8653 8.72025C13.8775 8.71213 13.8856 8.69994 13.8897 8.68369C13.8978 8.66744 13.8978 8.65119 13.8897 8.63494C13.8837 8.6192 13.8721 8.60619 13.8572 8.59838L13.7759 8.56994L13.6947 8.5415L13.6459 8.67557H13.65Z" fill="white"/>
</g>
<g id="Group_7">
<path id="Vector_19" d="M14.0969 8.92738C14.1109 8.87982 14.1344 8.83559 14.166 8.79738C14.1865 8.77287 14.2113 8.75223 14.2391 8.73645C14.2643 8.72222 14.2918 8.71259 14.3203 8.70801C14.361 8.70801 14.4016 8.70801 14.4463 8.72426C14.4826 8.73324 14.5166 8.74984 14.546 8.77295C14.5754 8.79607 14.5996 8.82516 14.6169 8.85832C14.6494 8.92332 14.6494 9.00051 14.625 9.08988C14.6049 9.16667 14.5553 9.23238 14.4869 9.2727C14.426 9.30926 14.3528 9.31332 14.2756 9.28895C14.2394 9.27972 14.2055 9.26303 14.1762 9.23995C14.1468 9.21686 14.1225 9.18789 14.105 9.15488C14.0887 9.11937 14.0796 9.08099 14.0783 9.04194C14.0769 9.0029 14.0832 8.96397 14.0969 8.92738Z" fill="#309E3A"/>
<path id="Vector_20" d="M14.2107 8.95976C14.1944 9.0207 14.1903 9.07351 14.2107 9.11414C14.231 9.15476 14.2594 9.17914 14.3041 9.19539C14.3447 9.20758 14.3853 9.20351 14.426 9.17914C14.4666 9.15883 14.491 9.11414 14.5113 9.04914C14.5316 8.9882 14.5316 8.93945 14.5113 8.89883C14.5033 8.87955 14.4911 8.86228 14.4756 8.84824C14.4602 8.8342 14.4419 8.82373 14.4219 8.81758C14.4019 8.81068 14.3807 8.80819 14.3596 8.8103C14.3386 8.8124 14.3183 8.81904 14.3 8.82976C14.2594 8.85414 14.231 8.89476 14.2107 8.95976Z" fill="white"/>
</g>
<g id="Group_8">
<path id="Vector_21" d="M15.2059 9.71957L15.4659 9.21582L15.6812 9.32551C15.7218 9.34498 15.7589 9.37107 15.7909 9.4027C15.8112 9.42301 15.8234 9.44738 15.8234 9.47988C15.8234 9.51238 15.8234 9.54082 15.8072 9.56926C15.7916 9.60579 15.7625 9.63489 15.7259 9.65051C15.6853 9.65863 15.6447 9.65863 15.6 9.64238C15.6162 9.66676 15.6244 9.69113 15.6325 9.71145C15.6406 9.73582 15.6447 9.77238 15.6487 9.8252L15.6569 9.9552L15.535 9.89426L15.5187 9.74395C15.5168 9.70987 15.5128 9.67595 15.5066 9.64238C15.5038 9.62719 15.4967 9.61309 15.4862 9.60176L15.4375 9.57332L15.4172 9.56113L15.3075 9.77238L15.2059 9.71957Z" fill="#309E3A"/>
<path id="Vector_22" d="M15.4578 9.47985L15.535 9.52048C15.5838 9.54485 15.6163 9.5611 15.6285 9.5611C15.6406 9.5611 15.6569 9.5611 15.6691 9.55298C15.6813 9.54892 15.6894 9.53673 15.6975 9.52048C15.7056 9.50423 15.7097 9.48798 15.7056 9.47173C15.7006 9.45555 15.6907 9.44135 15.6772 9.4311C15.6534 9.41651 15.629 9.40295 15.6041 9.39048L15.5228 9.34985L15.4578 9.47985Z" fill="white"/>
</g>
<g id="Group_9">
<path id="Vector_23" d="M17.3103 10.7597C17.3366 10.718 17.3712 10.682 17.4119 10.6541C17.4392 10.6366 17.4695 10.6242 17.5013 10.6176C17.5308 10.6115 17.5612 10.6115 17.5906 10.6176C17.6313 10.6257 17.6678 10.6419 17.7044 10.6663C17.736 10.686 17.7632 10.7121 17.7842 10.7428C17.8051 10.7736 17.8195 10.8084 17.8263 10.8451C17.8385 10.9141 17.8181 10.9913 17.7694 11.0685C17.7286 11.1356 17.6629 11.1838 17.5866 11.2026C17.5502 11.2104 17.5126 11.2105 17.4762 11.2028C17.4398 11.1951 17.4054 11.1798 17.3753 11.1579C17.3437 11.1382 17.3165 11.1121 17.2956 11.0813C17.2746 11.0506 17.2602 11.0157 17.2535 10.9791C17.2413 10.906 17.2616 10.8329 17.3103 10.7597Z" fill="#309E3A"/>
<path id="Vector_24" d="M17.4119 10.8247C17.3712 10.8775 17.3591 10.9262 17.3672 10.9709C17.3702 10.9915 17.3775 11.0112 17.3887 11.0287C17.3999 11.0462 17.4148 11.0612 17.4322 11.0725C17.4728 11.1009 17.5134 11.1091 17.5541 11.0969C17.5947 11.0847 17.6353 11.0562 17.6719 10.9994C17.7084 10.9425 17.7247 10.8937 17.7166 10.8531C17.7125 10.8125 17.6881 10.7759 17.6516 10.7475C17.615 10.7191 17.5703 10.715 17.5297 10.7272C17.4891 10.7353 17.4484 10.7678 17.4078 10.8247H17.4119Z" fill="white"/>
</g>
<path id="Vector_25" d="M12.2606 8.55779L12.3541 8.15967L12.6466 8.22873L12.6344 8.29373L12.4191 8.24498L12.3987 8.33436L12.5978 8.37904L12.5816 8.44811L12.3825 8.39936L12.3581 8.50904L12.5816 8.56186L12.5653 8.62686L12.2606 8.55779Z" fill="#309E3A"/>
</g>
</svg>
