<svg width="26" height="25" viewBox="0 0 26 25" fill="none" xmlns="http://www.w3.org/2000/svg">
<path d="M3.13184 12.9169C3.32107 12.8172 3.55335 12.8386 3.71973 12.9716L3.79688 13.0468L3.79785 13.0487L3.85742 13.1385C3.9736 13.3592 3.92552 13.6385 3.72754 13.8036H3.72656L2.1416 15.1141L8.50098 22.8026L10.0859 21.4911L10.0869 21.4901L10.1777 21.4305C10.3667 21.3313 10.5985 21.3527 10.7646 21.4852L10.8418 21.5614L10.8428 21.5624L10.9033 21.6532C11.0024 21.8421 10.9811 22.074 10.8486 22.2401L10.7725 22.3173L8.77441 23.9716C8.67124 24.0581 8.54687 24.0946 8.43066 24.0946C8.2764 24.0945 8.12552 24.0304 8.01855 23.9022L8.01758 23.9012L0.972656 15.3876L0.97168 15.3866C0.785326 15.1575 0.815988 14.8202 1.04199 14.6317H1.04297L3.04102 12.9774L3.04199 12.9764L3.13184 12.9169Z" fill="white" stroke="white" stroke-width="0.3"/>
<path d="M15.7998 2.56311C15.9738 2.54846 16.1389 2.62409 16.2451 2.75549L23.2871 11.2692V11.2701L23.3369 11.3414C23.4386 11.5164 23.4365 11.7406 23.3135 11.9156C23.1809 12.1098 20.4396 16.0959 17.8438 18.2067C15.2902 20.3237 10.8322 22.3133 10.6455 22.3971L10.6445 22.3961C10.5702 22.43 10.4983 22.441 10.4297 22.441C10.3133 22.441 10.1968 22.4016 10.1025 22.3297L10.0156 22.2477L2.97461 13.733L2.97266 13.7311C2.86872 13.6009 2.82366 13.4295 2.86719 13.2604L2.92969 13.0436C3.28152 11.9423 4.20685 10.6366 5.20703 9.46643C6.27842 8.21299 7.45656 7.09106 8.16895 6.50354L8.60254 6.15393C9.63668 5.33694 10.8313 4.5287 12.0146 3.88635C13.3631 3.15443 14.7132 2.62794 15.7998 2.56213V2.56311ZM15.6035 3.65979C14.6795 3.78667 13.508 4.27965 12.3125 4.95081C11.0863 5.63923 9.85001 6.50607 8.85547 7.32971V7.33069C8.13415 7.92573 7.05927 8.9599 6.08789 10.0856C5.13952 11.1846 4.30629 12.3524 3.98242 13.274L10.5781 21.2467C11.7077 20.7208 15.1327 19.0579 17.1592 17.3815L17.1611 17.3795L17.167 17.3746L17.5684 17.0338C19.5139 15.3122 21.5262 12.5771 22.2012 11.6334L15.6035 3.65979Z" fill="white" stroke="white" stroke-width="0.3"/>
<path d="M17.5781 0.967041C17.7674 0.867402 17.9996 0.888749 18.166 1.02173L18.2432 1.09692V1.0979L25.2852 9.61157H25.2842C25.3766 9.72095 25.4195 9.86654 25.4033 10.0071L25.4014 10.0061C25.3891 10.1458 25.3212 10.2781 25.21 10.3684L23.2158 12.0178L23.2168 12.0188C23.1162 12.1082 22.9942 12.1447 22.874 12.1448C22.7196 12.1448 22.568 12.0807 22.4609 11.9524L22.46 11.9504C22.2735 11.7213 22.3041 11.384 22.5303 11.1956L24.1152 9.88501L17.7588 2.19653L16.1748 3.50806L16.1738 3.50903C15.9733 3.672 15.69 3.66882 15.4961 3.51392L15.4189 3.43774L15.418 3.43677C15.2316 3.2077 15.2623 2.87039 15.4883 2.68188H15.4893L17.4873 1.02759L17.4883 1.02661L17.5781 0.967041Z" fill="white" stroke="white" stroke-width="0.3"/>
</svg>
