<svg width="16" height="16" viewBox="0 0 16 16" fill="none" xmlns="http://www.w3.org/2000/svg">
<g clip-path="url(#clip0_91_569)">
<path d="M13.2423 3.20706C12.3773 2.6452 11.7535 1.7458 11.5586 0.697921C11.5168 0.471568 11.4934 0.238393 11.4934 0H8.73344L8.72901 11.0239C8.6827 12.2584 7.66311 13.2493 6.41359 13.2493C6.02501 13.2493 5.65937 13.1525 5.33723 12.9836C4.59871 12.5963 4.09335 11.8249 4.09335 10.9372C4.09335 9.66213 5.13428 8.62468 6.41319 8.62468C6.65198 8.62468 6.88111 8.66401 7.09775 8.73143V5.92329C6.87345 5.89279 6.64554 5.87393 6.41319 5.87393C3.61214 5.87393 1.33337 8.14508 1.33337 10.9372C1.33337 12.6501 2.19189 14.1659 3.50221 15.0825C4.3273 15.6601 5.33119 16 6.41359 16C9.21464 16 11.4934 13.7288 11.4934 10.9372V5.34698C12.5758 6.12115 13.9022 6.57747 15.3334 6.57747V3.82672C14.5626 3.82672 13.8447 3.59836 13.2423 3.20706Z" fill="#0C2A43"/>
</g>
<defs>
<clipPath id="clip0_91_569">
<rect width="14" height="16" fill="white" transform="translate(1.33337)"/>
</clipPath>
</defs>
</svg>
