<svg width="16" height="16" viewBox="0 0 16 16" fill="none" xmlns="http://www.w3.org/2000/svg">
<g clip-path="url(#clip0_91_575)">
<path d="M6.36364 10.7251V5.94156L10.5455 8.33344L6.36364 10.7251ZM15.6656 4.4364C15.4816 3.73977 14.9395 3.1912 14.2511 3.00502C13.0034 2.66667 8 2.66667 8 2.66667C8 2.66667 2.99666 2.66667 1.7489 3.00502C1.06051 3.1912 0.518324 3.73977 0.334339 4.4364C0 5.699 0 8.33333 0 8.33333C0 8.33333 0 10.9676 0.334339 12.2303C0.518324 12.9269 1.06051 13.4755 1.7489 13.6617C2.99666 14 8 14 8 14C8 14 13.0034 14 14.2511 13.6617C14.9395 13.4755 15.4816 12.9269 15.6656 12.2303C16 10.9676 16 8.33333 16 8.33333C16 8.33333 16 5.699 15.6656 4.4364Z" fill="#0C2A43"/>
</g>
<defs>
<clipPath id="clip0_91_575">
<rect width="16" height="11.3333" fill="white" transform="translate(0 2.6665)"/>
</clipPath>
</defs>
</svg>
